<?xml version="1.0" encoding="UTF-8"?>
<svg version="1.1" xmlns="http://www.w3.org/2000/svg" width="512" height="512">
<path d="M0 0 C0.97812346 -0.00453111 1.95624691 -0.00906223 2.96401048 -0.01373065 C6.23877078 -0.02638225 9.51336494 -0.02475376 12.78814697 -0.02310181 C15.13731093 -0.02908661 17.48647292 -0.03589204 19.83563232 -0.04345703 C26.21592079 -0.06112994 32.59615561 -0.06581299 38.97646618 -0.0670886 C43.63272544 -0.06874866 48.28897277 -0.07454809 52.94522782 -0.08076156 C65.47105775 -0.09736719 77.99685927 -0.10484666 90.5226998 -0.10342209 C91.23355909 -0.10334218 91.94441837 -0.10326227 92.67681885 -0.10317993 C93.744416 -0.10305729 93.744416 -0.10305729 94.83358076 -0.10293217 C106.36278305 -0.10211963 117.89185457 -0.12125039 129.42101905 -0.14945666 C141.27057663 -0.17821704 153.12007051 -0.1919952 164.96966386 -0.19026911 C171.61766058 -0.18960625 178.26553684 -0.19544412 184.91350555 -0.21662521 C191.168021 -0.23600845 197.42224735 -0.23613113 203.67677307 -0.22159195 C205.96886366 -0.21950283 208.26097233 -0.22421081 210.55303192 -0.23631287 C213.68933832 -0.25179639 216.8246518 -0.24243595 219.9609375 -0.22705078 C221.31184719 -0.24248147 221.31184719 -0.24248147 222.69004798 -0.25822389 C231.42692654 -0.16393163 239.25614393 2.5430065 245.70318604 8.56430054 C251.76423502 15.30567135 254.48152908 22.40155457 254.49170494 31.47739887 C254.49521102 32.18398902 254.49871709 32.89057917 254.50232941 33.61858115 C254.51163324 35.98625263 254.50672277 38.3536776 254.50186157 40.72135925 C254.50559834 42.43604234 254.51019997 44.15072372 254.51559222 45.8654024 C254.52783426 50.57754501 254.52756033 55.28961668 254.52520347 60.00177157 C254.52479561 65.08369647 254.53583148 70.16559854 254.5453186 75.24751282 C254.56193603 85.20396878 254.56742848 95.16040106 254.56854336 105.11686973 C254.56949345 113.20923563 254.57360181 121.30159371 254.57994461 129.39395714 C254.59755881 152.33333306 254.60678317 175.27269027 254.60528366 198.21207301 C254.60520375 199.44890624 254.60512384 200.68573947 254.6050415 201.96005249 C254.60495974 203.19839443 254.60487798 204.43673637 254.60479374 205.71260383 C254.60398072 225.78473918 254.62312194 245.85679951 254.65131824 265.92891315 C254.68003632 286.53492804 254.69385913 307.14090633 254.69213068 327.74694175 C254.69146643 339.31724095 254.69697447 350.8874615 254.71848679 362.45774269 C254.73668438 372.30840521 254.74105756 382.15895343 254.72746794 392.00962547 C254.72093123 397.0355485 254.72084656 402.06125214 254.73817444 407.08715439 C254.75387891 411.68952223 254.75106835 416.29149626 254.73360617 420.89385434 C254.73053051 422.55735211 254.73419001 424.22087908 254.74532633 425.88434241 C254.79824815 434.35128223 254.82656274 441.81814101 250.23443604 449.26742554 C249.76521729 450.07695679 249.29599854 450.88648804 248.81256104 451.72055054 C243.90866379 458.35523505 238.19522042 462.08441748 230.23443604 464.26742554 C226.97618251 464.556294 223.73155911 464.54597602 220.46214294 464.53485107 C219.48331392 464.53938219 218.5044849 464.5439133 217.49599439 464.54858172 C214.21890014 464.5612333 210.94197192 464.55960484 207.66485596 464.55795288 C205.31406948 464.56393764 202.96328497 464.57074307 200.61250305 464.57830811 C194.22814964 464.59598044 187.84384983 464.60066401 181.45947433 464.60193968 C176.80092111 464.60359963 172.14237982 464.60939881 167.48383081 464.61561263 C154.95322686 464.63221753 142.42265131 464.63969776 129.89203676 464.63827316 C129.18091475 464.63819325 128.46979274 464.63811334 127.73712158 464.63803101 C126.66913097 464.63790836 126.66913097 464.63790836 125.57956479 464.63778324 C114.04322047 464.63697051 102.50700677 464.65610646 90.97070023 464.68430774 C79.11549742 464.7130591 67.26035826 464.7268468 55.40511972 464.72512019 C48.75324252 464.72445706 42.1014857 464.73030602 35.44963646 464.75147629 C29.1926618 464.7708461 22.93597619 464.77099142 16.67899132 464.75644302 C14.38486814 464.7543523 12.09072693 464.75907142 9.79663467 464.77116394 C6.65997756 464.78662457 3.52431609 464.77730211 0.38768005 464.76190186 C-0.51583925 464.77218898 -1.41935855 464.78247611 -2.35025722 464.79307497 C-11.79098093 464.6909479 -19.94442492 460.76091162 -26.76556396 454.26742554 C-31.87904115 447.7782413 -34.01354656 441.33912197 -34.02283287 433.06024551 C-34.02633895 432.35395496 -34.02984502 431.64766441 -34.03345734 430.91997111 C-34.04276115 428.5533089 -34.0378507 426.18689332 -34.0329895 423.82022095 C-34.03672628 422.10625055 -34.04132791 420.39228186 -34.04672015 418.67831588 C-34.05896221 413.96810388 -34.05868825 409.25796284 -34.0563314 404.54773855 C-34.05592353 399.46783953 -34.06695948 394.38796335 -34.07644653 389.30807495 C-34.09306426 379.355294 -34.09855643 369.40253673 -34.09967129 359.44974306 C-34.10062142 351.35976943 -34.10472998 343.26980362 -34.11107254 335.17983246 C-34.12868727 312.24552219 -34.13791108 289.31123065 -34.13641159 266.37691358 C-34.13633168 265.14034307 -34.13625177 263.90377256 -34.13616943 262.62973022 C-34.13608767 261.39165059 -34.13600591 260.15357096 -34.13592167 258.87797377 C-34.13510877 238.81298049 -34.154247 218.74806228 -34.18244617 198.68309072 C-34.21116942 178.08272106 -34.22498676 157.48238802 -34.22325861 136.88199782 C-34.22259451 125.31557912 -34.22809588 113.74923911 -34.24961472 102.18283844 C-34.26781915 92.33476635 -34.27217989 82.48680861 -34.25859587 72.63872698 C-34.25206246 67.61470529 -34.25196257 62.59090303 -34.26930237 57.56690216 C-34.28502154 52.96509888 -34.28218118 48.36368924 -34.2647341 43.76189563 C-34.26166167 42.09972595 -34.26530578 40.43752698 -34.27645425 38.77539185 C-34.34749499 27.42982248 -33.58712879 17.49114646 -25.46868896 8.79867554 C-17.82305805 1.92462206 -10.0635786 -0.03426932 0 0 Z M-17.76556396 48.26742554 C-17.76556396 164.42742554 -17.76556396 280.58742554 -17.76556396 400.26742554 C66.71443604 400.26742554 151.19443604 400.26742554 238.23443604 400.26742554 C238.23443604 284.10742554 238.23443604 167.94742554 238.23443604 48.26742554 C153.75443604 48.26742554 69.27443604 48.26742554 -17.76556396 48.26742554 Z M88.23443604 427.26742554 C86.81401783 430.10826195 86.91991331 432.12219831 87.23443604 435.26742554 C89.46650034 438.11523173 90.78436602 439.1174022 94.23443604 440.26742554 C98.75481537 440.49627039 103.27759638 440.49573123 107.80303955 440.50765991 C110.02860166 440.51734574 112.25323195 440.54837085 114.47857666 440.57992554 C115.90370141 440.58645826 117.32883274 440.59170767 118.75396729 440.59555054 C120.68913208 440.60956909 120.68913208 440.60956909 122.66339111 440.62387085 C126.52979624 440.23794404 128.94474553 439.30146882 132.23443604 437.26742554 C133.65485424 434.42658912 133.54895876 432.41265276 133.23443604 429.26742554 C131.00237173 426.41961935 129.68450605 425.41744888 126.23443604 424.26742554 C121.7140567 424.03858068 117.19127569 424.03911984 112.66583252 424.02719116 C110.44027041 424.01750533 108.21564012 423.98648022 105.99029541 423.95492554 C104.56517066 423.94839282 103.14003933 423.9431434 101.71490479 423.93930054 C99.77973999 423.92528198 99.77973999 423.92528198 97.80548096 423.91098022 C93.93907583 424.29690704 91.52412654 425.23338226 88.23443604 427.26742554 Z " fill="#270F5D" transform="translate(145.76556396484375,23.732574462890625)"/>
<path d="M0 0 C1.02994835 -0.00935994 1.02994835 -0.00935994 2.08070374 -0.01890898 C4.38097496 -0.03486111 6.68018972 -0.02222711 8.98046875 -0.00964355 C10.62972634 -0.01506373 12.27897909 -0.0221858 13.92822266 -0.03088379 C18.40757091 -0.04913268 22.886551 -0.04204323 27.36590576 -0.02936745 C32.05123901 -0.01924786 36.73654052 -0.02863023 41.421875 -0.03491211 C49.29042222 -0.04219156 57.15881932 -0.03259303 65.02734375 -0.0135498 C74.12742646 0.00821953 83.22715071 0.00116837 92.32722473 -0.02085543 C100.13710094 -0.03900097 107.94686917 -0.0415719 115.75675964 -0.03110075 C120.42269772 -0.02486116 125.08846725 -0.02404295 129.75439453 -0.0372467 C134.14085692 -0.04879232 138.52685669 -0.0408033 142.91326904 -0.01766968 C144.52414176 -0.01237565 146.13505333 -0.01390823 147.74591064 -0.02272034 C149.94311376 -0.03363283 152.13882949 -0.01996683 154.3359375 0 C156.18094849 0.00226215 156.18094849 0.00226215 158.06323242 0.00457001 C161.16796875 0.50793457 161.16796875 0.50793457 163.56322479 2.22657013 C165.45337034 4.91367222 165.67029228 6.25831239 165.67590332 9.5177002 C165.68718262 10.5271167 165.69846191 11.5365332 165.71008301 12.57653809 C165.70198608 13.67796143 165.69388916 14.77938477 165.68554688 15.91418457 C165.69255615 17.07877197 165.69956543 18.24335938 165.70678711 19.4432373 C165.72441307 23.2983779 165.71272716 27.15278631 165.69921875 31.00793457 C165.70191232 33.6830741 165.70578728 36.35819126 165.71081543 39.0333252 C165.71809072 44.64213007 165.70850746 50.2507242 165.68945312 55.85949707 C165.66768432 62.34211364 165.6747358 68.82422699 165.69675875 75.30683136 C165.71491634 80.87470046 165.71746941 86.44241816 165.70700407 92.01030731 C165.70077097 95.33489127 165.70150073 98.65918709 165.71315002 101.98376465 C165.72328623 105.69008614 165.7078536 109.39543564 165.68554688 113.10168457 C165.6936438 114.20310791 165.70174072 115.30453125 165.71008301 116.43933105 C165.69880371 117.44874756 165.68752441 118.45816406 165.67590332 119.49816895 C165.67439522 120.37420776 165.67288712 121.25024658 165.67133331 122.15283203 C164.97119324 125.42859235 163.87971565 126.56221162 161.16796875 128.50793457 C158.06323242 129.01129913 158.06323242 129.01129913 154.3359375 129.01586914 C153.64930527 129.0221091 152.96267303 129.02834907 152.25523376 129.03477812 C149.95496254 129.05073025 147.65574778 129.03809625 145.35546875 129.0255127 C143.70621116 129.03093287 142.05695841 129.03805494 140.40771484 129.04675293 C135.92836659 129.06500182 131.4493865 129.05791237 126.97003174 129.04523659 C122.28469849 129.035117 117.59939698 129.04449937 112.9140625 129.05078125 C105.04551528 129.0580607 97.17711818 129.04846217 89.30859375 129.02941895 C80.20851104 129.00764961 71.10878679 129.01470078 62.00871277 129.03672457 C54.19883656 129.05487011 46.38906833 129.05744104 38.57917786 129.04696989 C33.91323978 129.0407303 29.24747025 129.03991209 24.58154297 129.05311584 C20.19508058 129.06466146 15.80908081 129.05667244 11.42266846 129.03353882 C9.81179574 129.02824479 8.20088417 129.02977737 6.59002686 129.03858948 C4.39282374 129.04950197 2.19710801 129.03583597 0 129.01586914 C-1.23000732 129.01436104 -2.46001465 129.01285294 -3.72729492 129.01129913 C-6.83203125 128.50793457 -6.83203125 128.50793457 -9.22728729 126.78929901 C-11.11743284 124.10219692 -11.33435478 122.75755675 -11.33996582 119.49816895 C-11.35688477 117.98404419 -11.35688477 117.98404419 -11.37414551 116.43933105 C-11.36200012 114.78719604 -11.36200012 114.78719604 -11.34960938 113.10168457 C-11.35661865 111.93709717 -11.36362793 110.77250977 -11.37084961 109.57263184 C-11.38847557 105.71749124 -11.37678966 101.86308283 -11.36328125 98.00793457 C-11.36597482 95.33279504 -11.36984978 92.65767788 -11.37487793 89.98254395 C-11.38215322 84.37373907 -11.37256996 78.76514494 -11.35351562 73.15637207 C-11.33174682 66.6737555 -11.3387983 60.19164215 -11.36082125 53.70903778 C-11.37897884 48.14116868 -11.38153191 42.57345098 -11.37106657 37.00556183 C-11.36483347 33.68097787 -11.36556323 30.35668205 -11.37721252 27.03210449 C-11.38734873 23.325783 -11.3719161 19.6204335 -11.34960938 15.91418457 C-11.3577063 14.81276123 -11.36580322 13.71133789 -11.37414551 12.57653809 C-11.36286621 11.56712158 -11.35158691 10.55770508 -11.33996582 9.5177002 C-11.33845772 8.64166138 -11.33694962 7.76562256 -11.33539581 6.86303711 C-9.99652708 0.59884333 -5.71479127 0.00700686 0 0 Z M24.23046875 50.32043457 C22.93786133 51.60724121 22.93786133 51.60724121 21.61914062 52.92004395 C20.80123047 53.73924316 19.98332031 54.55844238 19.140625 55.40246582 C18.40078369 56.14343506 17.66094238 56.8844043 16.89868164 57.64782715 C14.81754535 59.88455693 14.24071508 61.12601634 13.66796875 64.13293457 C14.90303254 72.46961514 25.23120295 79.72268345 30.98046875 85.44543457 C31.83833984 86.30717285 32.69621094 87.16891113 33.58007812 88.0567627 C34.39927734 88.87467285 35.21847656 89.69258301 36.0625 90.53527832 C36.80346924 91.27511963 37.54443848 92.01496094 38.30786133 92.77722168 C40.69785098 95.00095663 41.76838192 95.46450122 45.04296875 95.82043457 C48.21321642 95.75578374 48.21321642 95.75578374 50.54296875 93.88293457 C52.31842278 91.5833262 52.31842278 91.5833262 52.85546875 88.75793457 C51.79050806 83.72357495 48.73253875 81.09023875 45.16796875 77.50793457 C44.42087646 76.75044922 44.42087646 76.75044922 43.65869141 75.97766113 C40.18835376 72.46046924 36.68770406 68.97565409 33.16796875 65.50793457 C34.58717628 62.26698392 36.30105123 60.14957952 38.828125 57.68762207 C39.53904297 56.98766113 40.24996094 56.2877002 40.98242188 55.56652832 C41.72427734 54.84594238 42.46613281 54.12535645 43.23046875 53.38293457 C44.70270068 51.94505896 46.17286031 50.50505749 47.640625 49.06262207 C48.29297119 48.42824219 48.94531738 47.7938623 49.61743164 47.14025879 C51.75198557 44.89311226 52.14151594 43.75130045 52.48046875 40.63293457 C52.41581792 37.4626869 52.41581792 37.4626869 50.54296875 35.13293457 C48.24336038 33.35748054 48.24336038 33.35748054 45.41796875 32.82043457 C37.09892246 34.58023282 30.03761848 44.48637913 24.23046875 50.32043457 Z M79.16796875 35.50793457 C74.85346327 43.92765532 72.31739847 53.58488438 69.31201172 62.54040527 C68.41547299 65.2028462 67.50464678 67.86014294 66.59375 70.5177002 C66.01864158 72.22638538 65.44439256 73.93536012 64.87109375 75.64465332 C64.46337738 76.8230201 64.46337738 76.8230201 64.04742432 78.02519226 C62.51891174 82.64735282 61.73725831 86.5745896 62.16796875 91.50793457 C63.64790031 94.07132146 63.64790031 94.07132146 66.16796875 95.50793457 C69.16796875 96.17460124 69.16796875 96.17460124 72.16796875 95.50793457 C76.71681576 92.14828453 77.86971557 87.51955349 79.55078125 82.35949707 C79.85112274 81.46934906 80.15146423 80.57920105 80.46090698 79.66207886 C81.41609569 76.82263034 82.35471674 73.9780189 83.29296875 71.13293457 C83.93120521 69.22632054 84.57051682 67.32006605 85.2109375 65.41418457 C86.64259799 61.14610366 88.06436807 56.8749063 89.47438049 52.59962463 C90.08787176 50.74948721 90.71492384 48.90385849 91.34399414 47.05895996 C92.56507087 43.27850642 92.49286106 40.47162074 92.16796875 36.50793457 C90.64386539 34.02123962 89.51527405 33.63588916 86.79296875 32.63293457 C83.09705194 32.45693853 81.94410098 33.01653385 79.16796875 35.50793457 Z M103.79296875 35.13293457 C102.01751472 37.43254294 102.01751472 37.43254294 101.48046875 40.25793457 C102.54542944 45.2922942 105.60339875 47.92563039 109.16796875 51.50793457 C109.91506104 52.26541992 109.91506104 52.26541992 110.67724609 53.03820801 C114.14758374 56.5553999 117.64823344 60.04021505 121.16796875 63.50793457 C119.74876122 66.74888522 118.03488627 68.86628962 115.5078125 71.32824707 C114.79689453 72.02820801 114.08597656 72.72816895 113.35351562 73.44934082 C112.61166016 74.16992676 111.86980469 74.8905127 111.10546875 75.63293457 C109.63323682 77.07081018 108.16307719 78.51081165 106.6953125 79.95324707 C106.04296631 80.58762695 105.39062012 81.22200684 104.71850586 81.87561035 C102.58395193 84.12275688 102.19442156 85.26456869 101.85546875 88.38293457 C101.92011958 91.55318224 101.92011958 91.55318224 103.79296875 93.88293457 C106.09257712 95.6583886 106.09257712 95.6583886 108.91796875 96.19543457 C117.23701504 94.43563632 124.29831902 84.52949001 130.10546875 78.69543457 C130.96720703 77.83756348 131.82894531 76.97969238 132.71679688 76.0958252 C133.53470703 75.27662598 134.35261719 74.45742676 135.1953125 73.61340332 C136.30507446 72.50194946 136.30507446 72.50194946 137.43725586 71.36804199 C139.51839215 69.13131221 140.09522242 67.8898528 140.66796875 64.88293457 C139.43290496 56.546254 129.10473455 49.2931857 123.35546875 43.57043457 C122.06866211 42.27782715 122.06866211 42.27782715 120.75585938 40.95910645 C119.93666016 40.14119629 119.11746094 39.32328613 118.2734375 38.48059082 C117.53246826 37.74074951 116.79149902 37.0009082 116.02807617 36.23864746 C113.63808652 34.01491251 112.56755558 33.55136792 109.29296875 33.19543457 C106.12272108 33.2600854 106.12272108 33.2600854 103.79296875 35.13293457 Z " fill="#270F5D" transform="translate(178.83203125,159.4920654296875)"/>
<path d="M0 0 C0.85247314 -0.00700928 1.70494629 -0.01401855 2.58325195 -0.02124023 C5.3995832 -0.03883756 8.21490864 -0.02719147 11.03125 -0.01367188 C12.98893425 -0.01636629 14.9466172 -0.02024829 16.90429688 -0.02526855 C21.00664007 -0.03116595 25.10863482 -0.02259281 29.2109375 -0.00390625 C34.47045628 0.01888337 39.72915864 0.00576159 44.98864746 -0.01819611 C49.0309871 -0.03264751 53.07313305 -0.0280511 57.11547852 -0.01768494 C59.05476986 -0.01501583 60.99407877 -0.01829385 62.93334961 -0.02760315 C65.6435405 -0.03775789 68.35240775 -0.02228315 71.0625 0 C71.86469971 -0.00809692 72.66689941 -0.01619385 73.4934082 -0.02453613 C77.09387563 0.03033112 79.1245547 0.20680866 82.02734375 2.42492676 C83.65685192 4.69235034 84.0743805 5.75722605 84.03125 8.51757812 C84.04671875 9.50757813 84.04671875 9.50757813 84.0625 10.51757812 C83.25733917 13.54877184 82.02578717 14.61141893 79.53125 16.51757812 C76.5833973 16.912136 74.00947717 17.06490127 71.0625 17.03515625 C69.78379028 17.04567017 69.78379028 17.04567017 68.47924805 17.05639648 C65.6629168 17.07399381 62.84759136 17.06234772 60.03125 17.04882812 C58.07356575 17.05152254 56.1158828 17.05540454 54.15820312 17.0604248 C50.05585993 17.0663222 45.95386518 17.05774906 41.8515625 17.0390625 C36.59204372 17.01627288 31.33334136 17.02939466 26.07385254 17.05335236 C22.0315129 17.06780376 17.98936695 17.06320735 13.94702148 17.05284119 C12.00773014 17.05017208 10.06842123 17.0534501 8.12915039 17.0627594 C5.4189595 17.07291414 2.71009225 17.0574394 0 17.03515625 C-0.80219971 17.04325317 -1.60439941 17.0513501 -2.4309082 17.05969238 C-6.03137563 17.00482513 -8.0620547 16.82834759 -10.96484375 14.61022949 C-12.59435192 12.34280591 -13.0118805 11.2779302 -12.96875 8.51757812 C-12.98421875 7.52757812 -12.98421875 7.52757812 -13 6.51757812 C-11.24883612 -0.07503884 -5.81974348 -0.05874101 0 0 Z " fill="#280F5E" transform="translate(236.46875,335.482421875)"/>
<path d="M0 0 C0.85247314 -0.00700928 1.70494629 -0.01401855 2.58325195 -0.02124023 C5.3995832 -0.03883756 8.21490864 -0.02719147 11.03125 -0.01367188 C12.98893425 -0.01636629 14.9466172 -0.02024829 16.90429688 -0.02526855 C21.00664007 -0.03116595 25.10863482 -0.02259281 29.2109375 -0.00390625 C34.47045628 0.01888337 39.72915864 0.00576159 44.98864746 -0.01819611 C49.0309871 -0.03264751 53.07313305 -0.0280511 57.11547852 -0.01768494 C59.05476986 -0.01501583 60.99407877 -0.01829385 62.93334961 -0.02760315 C65.6435405 -0.03775789 68.35240775 -0.02228315 71.0625 0 C71.86469971 -0.00809692 72.66689941 -0.01619385 73.4934082 -0.02453613 C77.09387563 0.03033112 79.1245547 0.20680866 82.02734375 2.42492676 C83.65685192 4.69235034 84.0743805 5.75722605 84.03125 8.51757812 C84.04671875 9.50757813 84.04671875 9.50757813 84.0625 10.51757812 C83.25733917 13.54877184 82.02578717 14.61141893 79.53125 16.51757812 C76.5833973 16.912136 74.00947717 17.06490127 71.0625 17.03515625 C69.78379028 17.04567017 69.78379028 17.04567017 68.47924805 17.05639648 C65.6629168 17.07399381 62.84759136 17.06234772 60.03125 17.04882812 C58.07356575 17.05152254 56.1158828 17.05540454 54.15820312 17.0604248 C50.05585993 17.0663222 45.95386518 17.05774906 41.8515625 17.0390625 C36.59204372 17.01627288 31.33334136 17.02939466 26.07385254 17.05335236 C22.0315129 17.06780376 17.98936695 17.06320735 13.94702148 17.05284119 C12.00773014 17.05017208 10.06842123 17.0534501 8.12915039 17.0627594 C5.4189595 17.07291414 2.71009225 17.0574394 0 17.03515625 C-0.80219971 17.04325317 -1.60439941 17.0513501 -2.4309082 17.05969238 C-6.03137563 17.00482513 -8.0620547 16.82834759 -10.96484375 14.61022949 C-12.59435192 12.34280591 -13.0118805 11.2779302 -12.96875 8.51757812 C-12.98421875 7.52757812 -12.98421875 7.52757812 -13 6.51757812 C-11.24883612 -0.07503884 -5.81974348 -0.05874101 0 0 Z " fill="#280F5E" transform="translate(236.46875,303.482421875)"/>
<path d="M0 0 C2.5 1.5 2.5 1.5 4 4 C4.791013 8.02098277 4.62153384 10.96411027 2.5 14.5 C-1.03588973 16.62153384 -3.97901723 16.791013 -8 16 C-10.5 14.5 -10.5 14.5 -12 12 C-12.791013 7.97901723 -12.62153384 5.03588973 -10.5 1.5 C-6.96411027 -0.62153384 -4.02098277 -0.791013 0 0 Z " fill="#270F5E" transform="translate(204,336)"/>
<path d="M0 0 C2.5 1.5 2.5 1.5 4 4 C4.791013 8.02098277 4.62153384 10.96411027 2.5 14.5 C-1.03588973 16.62153384 -3.97901723 16.791013 -8 16 C-10.5 14.5 -10.5 14.5 -12 12 C-12.791013 7.97901723 -12.62153384 5.03588973 -10.5 1.5 C-6.96411027 -0.62153384 -4.02098277 -0.791013 0 0 Z " fill="#270F5E" transform="translate(204,304)"/>
</svg>
