<?xml version="1.0" encoding="UTF-8"?>
<svg version="1.1" xmlns="http://www.w3.org/2000/svg" width="507" height="507">
<path d="M0 0 C5.19847006 3.43574896 9.47770639 7.73856002 13.81054688 12.17724609 C15.36878179 13.76990231 16.94975627 15.33701631 18.53491211 16.90283203 C28.19450829 26.57438316 35.73903585 36.88432317 36.43139648 51.02001953 C35.64696096 67.03557811 26.00024813 77.67351662 15.17944336 88.36694336 C13.97563432 89.57126212 12.77270115 90.7764569 11.5705719 91.98245239 C8.32548289 95.23292852 5.06819864 98.47092068 1.80834389 101.70657945 C-1.6110446 105.10456551 -5.01938349 108.51360127 -8.42907715 111.92131042 C-14.15207812 117.63787878 -19.88240526 123.34701346 -25.61791992 129.05102539 C-32.97092021 136.36369077 -40.3124 143.6878068 -47.65006256 151.01585865 C-53.973692 157.33117561 -60.30177147 163.6420279 -66.63098717 169.95174575 C-67.98599271 171.30270815 -69.34084715 172.65382213 -70.69555092 174.00508714 C-74.55659223 177.85631477 -78.41998009 181.70515453 -82.28734016 185.55003738 C-83.45638092 186.71298149 -84.62460801 187.8767442 -85.7919445 189.041399 C-87.3899731 190.63541372 -88.9910315 192.22632343 -90.59289551 193.81648254 C-91.48661613 194.70592969 -92.38033676 195.59537683 -93.30113983 196.51177692 C-96.08873432 199.15777857 -98.96656869 201.5911332 -101.94360352 204.02001953 C-96.39554532 210.79464729 -90.1897012 216.87145521 -83.97485352 223.02294922 C-82.76178821 224.22753557 -81.54898604 225.43238696 -80.33642578 226.63748169 C-77.73495415 229.22229928 -75.13211047 231.80572451 -72.52832031 234.38820648 C-68.40508804 238.4786757 -64.28793273 242.57522454 -60.17211914 246.67315674 C-59.47566032 247.36652909 -58.77920151 248.05990144 -58.06163788 248.77428508 C-56.63805283 250.19156283 -55.21447654 251.60884936 -53.79090881 253.0261445 C-44.21678605 262.55735595 -34.63822559 272.08403715 -25.04516602 281.59619141 C-18.56214096 288.02463435 -12.08813641 294.46201471 -5.62419891 300.90965199 C-2.20907373 304.31543338 1.21044159 307.71652469 4.64111328 311.10665131 C7.86952793 314.29701659 11.08590326 317.49905041 14.29373169 320.71010971 C15.467211 321.880637 16.64493388 323.04692925 17.82736206 324.20841599 C28.18929022 334.3950305 34.95977811 344.05383581 36.43139648 358.77001953 C35.93056356 374.45235049 26.34203988 385.25430294 15.80639648 395.70751953 C14.9156543 396.61824219 14.02491211 397.52896484 13.10717773 398.46728516 C3.34035479 408.22702042 -6.77439744 414.98325985 -20.81860352 415.45751953 C-37.38428529 415.04694768 -46.91703348 405.35825915 -57.94360352 394.18017578 C-58.98865788 393.12883305 -60.03424109 392.07801576 -61.08032227 391.0276947 C-63.81705939 388.27774666 -66.54815521 385.52227176 -69.27758789 382.76507568 C-73.64316288 378.35615841 -78.0155597 373.95403461 -82.39135742 369.55526543 C-83.90474219 368.03179606 -85.41458862 366.5048877 -86.92407227 364.97755432 C-91.50382597 360.35795183 -96.14012212 355.88312241 -101.08200073 351.65107727 C-104.3547685 348.78361637 -107.40799106 345.69820706 -110.47875977 342.61767578 C-111.16111191 341.93628036 -111.84346405 341.25488495 -112.54649353 340.55284119 C-113.97704788 339.12296212 -115.40636119 337.69184042 -116.83447266 336.25952148 C-119.00059425 334.08804242 -121.17200526 331.92195628 -123.34399414 329.75634766 C-124.74340339 328.35627751 -126.14250235 326.95589715 -127.54125977 325.55517578 C-128.17999527 324.91846451 -128.81873077 324.28175323 -129.4768219 323.62574768 C-133.20758957 319.87583674 -136.72812674 316.00428041 -140.18702698 312.00343323 C-143.11079173 308.70210537 -146.22366416 305.59725149 -149.34594727 302.48486328 C-150.02734268 301.80251114 -150.7087381 301.120159 -151.41078186 300.41712952 C-152.84066093 298.98657516 -154.27178263 297.55726186 -155.70410156 296.12915039 C-157.87558063 293.96302879 -160.04166677 291.79161779 -162.20727539 289.61962891 C-163.60734553 288.22021966 -165.0077259 286.8211207 -166.40844727 285.42236328 C-167.04515854 284.78362778 -167.68186981 284.14489227 -168.33787537 283.48680115 C-171.40784601 280.43250269 -174.52075632 277.48312339 -177.80249023 274.65673828 C-182.65685018 270.45901843 -187.18899651 265.95532363 -191.73657227 261.43017578 C-192.6456282 260.52681992 -193.55468414 259.62346405 -194.49128723 258.69273376 C-196.4016946 256.79274406 -198.30983502 254.89050795 -200.21679688 252.98706055 C-202.64404204 250.56531633 -205.08044826 248.15301158 -207.51908398 245.7427454 C-209.86903853 243.41602002 -212.20828568 241.07862374 -214.54907227 238.74267578 C-215.41686813 237.88722672 -216.284664 237.03177765 -217.17875671 236.15040588 C-226.40665269 226.88851609 -231.80445494 217.92232316 -232.38110352 204.58251953 C-231.91400008 190.36632799 -224.27221827 181.03254886 -214.63896179 171.4546814 C-213.56886461 170.3788459 -213.56886461 170.3788459 -212.47714931 169.28127635 C-210.10308793 166.89695714 -207.72200566 164.51978112 -205.34082031 162.14257812 C-203.63001532 160.42742272 -201.91962773 158.71185088 -200.20962524 156.99589539 C-196.05642061 152.8307122 -191.89852534 148.6702496 -187.73815569 144.51222609 C-184.35481592 141.13067399 -180.97325673 137.74735107 -177.59293556 134.36278152 C-177.11065879 133.87990956 -176.62838202 133.3970376 -176.1314908 132.89953316 C-175.15155544 131.91838597 -174.17162123 130.93723762 -173.19168816 129.95608814 C-164.01571269 120.76925323 -154.83324719 111.58892674 -145.64878885 102.41057368 C-137.2581529 94.02510729 -128.87576063 85.63145529 -120.49721923 77.23390584 C-111.87957871 68.59686587 -103.25636787 59.96542366 -94.62714511 51.33995497 C-89.78836994 46.50308841 -84.95179931 41.66406672 -80.12106895 36.81916428 C-75.57838483 32.26328731 -71.027864 27.71533412 -66.47206497 23.17257118 C-64.80422448 21.50709384 -63.13892276 19.83906951 -61.47640038 18.16828346 C-59.20089582 15.88228833 -56.91626841 13.60580417 -54.62919617 11.33139038 C-53.97858851 10.67340844 -53.32798085 10.01542649 -52.6576578 9.3375057 C-37.52681759 -5.61853699 -19.03986641 -10.61749929 0 0 Z " fill="#270F5D" transform="translate(237.943603515625,48.97998046875)"/>
<path d="M0 0 C4.00303542 3.29005728 7.62516305 6.98563039 11.23632812 10.69433594 C12.87947362 12.37958826 14.54320317 14.04223767 16.2109375 15.703125 C25.97004802 25.51840372 32.74001423 34.55329219 33.4375 48.875 C32.8049474 66.1464361 22.13260878 76.16694682 10.66064453 87.56640625 C9.40811397 88.81837189 8.15602517 90.07077964 6.90434265 91.32359314 C3.52290461 94.70560254 0.13535717 98.0814309 -3.25335836 101.45614624 C-6.80035888 104.99060309 -10.34165701 108.53076417 -13.88357544 112.0703125 C-20.58361166 118.76414462 -27.28872758 125.45286422 -33.99570382 132.1397419 C-41.63448444 139.75613018 -49.26755393 147.37823121 -56.9001596 155.00080681 C-72.59377989 170.67354934 -88.29452411 186.33913843 -104 202 C-102.40710865 205.89372354 -99.90036427 208.33293687 -96.9337616 211.27310181 C-96.41288587 211.79215855 -95.89201015 212.31121529 -95.35535032 212.84600103 C-93.60901606 214.58392272 -91.85565344 216.31457755 -90.10229492 218.04541016 C-88.8485801 219.2903749 -87.59534159 220.53581946 -86.34254456 221.78170776 C-83.64313024 224.464628 -80.9407915 227.14455577 -78.23628807 229.82234573 C-73.95598675 234.06127594 -69.68493077 238.30943846 -65.41560364 242.55941772 C-53.2735747 254.64387845 -41.12172026 266.71839707 -28.95483398 278.77783203 C-22.23570798 285.43777677 -15.52565441 292.10672678 -8.82532007 298.78557813 C-4.58837473 303.00792267 -0.34061319 307.21896974 3.9155556 311.42193151 C6.56897442 314.04749561 9.21173469 316.68359101 11.85166359 319.32271194 C13.07231753 320.53881933 14.29723816 321.7506624 15.5268364 322.95772552 C22.04217556 329.35850987 27.68324965 335.29906027 31 344 C31.433125 345.134375 31.86625 346.26875 32.3125 347.4375 C34.24039746 357.42751412 33.4303101 368.34690883 27.65258789 377.0234375 C22.83486071 383.44612477 17.24019033 389.09248625 11.5625 394.75 C10.65951172 395.66910156 9.75652344 396.58820313 8.82617188 397.53515625 C-0.96105923 407.32947442 -9.76506675 412.97131278 -23.875 413.4375 C-38.66062929 413.05220673 -47.83652862 406.44306551 -57.8828125 396.28515625 C-59.68357917 394.34152432 -61.41424193 392.36306102 -63.14233398 390.35546875 C-66.88120865 386.07766563 -70.81765372 382.03760405 -74.83984375 378.02734375 C-75.56563126 377.30059952 -76.29141876 376.57385529 -77.03919983 375.8250885 C-78.56323556 374.30037704 -80.08851569 372.7769085 -81.61499023 371.25463867 C-83.93132463 368.94366109 -86.24227078 366.62739229 -88.55273438 364.31054688 C-90.04395034 362.8199918 -91.53547653 361.329747 -93.02734375 359.83984375 C-94.048032 358.81611916 -94.048032 358.81611916 -95.08934021 357.77171326 C-98.22125194 354.65481624 -101.38237435 351.6326878 -104.74023438 348.75976562 C-110.48091371 343.79935249 -115.77298475 338.37092032 -121.12890625 333.00390625 C-122.28883055 331.84465727 -123.44890312 330.68555663 -124.6091156 329.52659607 C-127.0287161 327.10846178 -129.44651971 324.6885492 -131.86303711 322.26733398 C-134.94143922 319.18323528 -138.02431023 316.10364906 -141.10855198 313.02539158 C-143.50144869 310.63612967 -145.89193238 308.24446486 -148.28172112 305.85209465 C-149.41674617 304.71640839 -150.55249819 303.58144814 -151.68902779 302.44726753 C-157.18072595 296.96443419 -162.62600216 291.48313351 -167.65893555 285.56811523 C-169.49034028 283.42664198 -171.44184676 281.42560824 -173.4375 279.4375 C-174.11683594 278.75558594 -174.79617188 278.07367188 -175.49609375 277.37109375 C-177.4840143 275.48861672 -179.49828389 273.70118784 -181.57397461 271.91943359 C-186.33397211 267.76229747 -190.8323936 263.36520234 -195.3203125 258.91796875 C-196.18260468 258.06374832 -197.04489685 257.20952789 -197.93331909 256.329422 C-199.74493601 254.53155695 -201.55506395 252.7321904 -203.36376953 250.93139648 C-205.20371147 249.10300502 -207.0481193 247.27909663 -208.89697266 245.4597168 C-211.58970909 242.80980956 -214.2688009 240.1467515 -216.9453125 237.48046875 C-217.76419952 236.67908981 -218.58308655 235.87771088 -219.42678833 235.05204773 C-228.34584087 226.0993071 -234.74217346 215.92020844 -235.375 203 C-234.72247071 189.67752706 -227.86729308 179.23525008 -218.62615967 170.1182251 C-217.90530001 169.39112548 -217.18444035 168.66402586 -216.44173646 167.91489291 C-214.04703 165.50435457 -211.63843039 163.10822356 -209.22949219 160.71191406 C-207.50018335 158.9771798 -205.77172545 157.24159689 -204.04405212 155.50523376 C-199.85017996 151.29506085 -195.64706142 147.09426567 -191.43922678 142.89805898 C-188.01723365 139.4851283 -184.59919987 136.06827828 -181.18390656 132.64864349 C-180.69636778 132.16049179 -180.20882901 131.67234009 -179.70651634 131.16939591 C-178.71586496 130.17746552 -177.72522251 129.18552622 -176.73458889 128.19357809 C-167.46203476 118.90963918 -158.17729806 109.6379621 -148.88829473 100.3704854 C-140.93175071 92.43181044 -132.98575201 84.48270704 -125.04736328 76.52587891 C-115.81126123 67.26833292 -106.56865628 58.01735914 -97.315696 48.77666068 C-96.32757451 47.78981328 -95.33946131 46.80295756 -94.35135651 45.81609344 C-93.86528604 45.33064008 -93.37921557 44.84518671 -92.87841569 44.34502263 C-89.46644518 40.93649447 -86.05911479 37.52337044 -82.65358734 34.10840607 C-78.06330094 29.50567872 -73.46239983 24.91373425 -68.85437202 20.32876778 C-67.16835595 18.64802476 -65.48570486 16.96389814 -63.80675316 15.27609825 C-61.50758716 12.96593856 -59.1963476 10.66854939 -56.8817749 8.37384033 C-56.22629819 7.70944073 -55.57082147 7.04504113 -54.89548182 6.3605082 C-38.93287596 -9.33896031 -18.83041952 -12.54568337 0 0 Z M-43.05078125 19.94140625 C-44.86574135 21.85820779 -46.73388255 23.54981023 -48.75 25.25 C-52.33419613 28.33933671 -55.71200407 31.59952929 -59.0625 34.9375 C-59.54493164 35.41541992 -60.02736328 35.89333984 -60.52441406 36.38574219 C-63.14717524 39.01911467 -65.6369459 41.72085388 -68.04882812 44.54882812 C-72.55661372 49.7164263 -77.39363844 54.53709177 -82.24609375 59.37890625 C-83.22598053 60.35946881 -84.20571901 61.34017959 -85.18531799 62.32102966 C-87.2268264 64.36400213 -89.27010566 66.40518169 -91.31469727 68.44506836 C-93.91452404 71.03919866 -96.50983373 73.63779434 -99.10381985 76.2377634 C-101.12249396 78.26007825 -103.14357733 80.2799719 -105.1653614 82.29917717 C-106.58232324 83.71516246 -107.99729817 85.13313515 -109.41221619 86.55116272 C-113.82196354 90.94507361 -118.28844436 95.17971448 -123.00914001 99.23597717 C-126.92766918 102.70803194 -130.58899147 106.44696143 -134.28515625 110.15234375 C-135.575037 111.44078941 -135.575037 111.44078941 -136.89097595 112.75526428 C-138.69815861 114.56177015 -140.50409392 116.36952462 -142.30883789 118.1784668 C-145.05438393 120.9293681 -147.80522546 123.67489221 -150.55664062 126.41992188 C-152.3206332 128.18457532 -154.0843155 129.94953897 -155.84765625 131.71484375 C-157.06824486 132.93239601 -157.06824486 132.93239601 -158.31349182 134.17454529 C-162.50044906 138.37854359 -166.51411819 142.66304581 -170.38551331 147.15867615 C-172.84185915 149.96014128 -175.45090779 152.59424618 -178.08984375 155.22265625 C-178.6380629 155.77183212 -179.18628204 156.321008 -179.75111389 156.88682556 C-180.8985232 158.03490838 -182.04716808 159.18175763 -183.19702148 160.32739258 C-184.933936 162.058947 -186.66543889 163.79578359 -188.39648438 165.53320312 C-193.57574004 170.71547457 -198.75210041 175.84417607 -204.34301758 180.58789062 C-210.72917019 186.03028147 -216.33666119 191.27870275 -217.34375 199.96484375 C-217.61558859 209.1280694 -215.11927849 214.00199472 -209.20703125 220.77734375 C-207.30045902 222.69741383 -205.35445665 224.44190089 -203.30404854 226.20318222 C-199.35370157 229.64751776 -195.61779097 233.25179473 -191.92819214 236.97174072 C-190.93198591 237.96984036 -190.93198591 237.96984036 -189.9156543 238.98810363 C-187.71334431 241.19574774 -185.51465141 243.40695827 -183.31591797 245.61816406 C-181.72867389 247.21060674 -180.14118362 248.80280405 -178.5534668 250.39477539 C-175.14624475 253.81190575 -171.74049396 257.23049333 -168.33581161 260.65015411 C-162.95194881 266.05714512 -157.56315126 271.45919955 -152.17337036 276.86029053 C-144.61859555 284.43152616 -137.06451142 292.00344862 -129.51220703 299.57714844 C-129.03382531 300.05688259 -128.55544359 300.53661674 -128.06256546 301.03088829 C-120.29795239 308.81771698 -112.53718163 316.60836657 -104.77735661 324.39996627 C-96.79789456 332.4118212 -88.81257785 340.41781097 -80.82250702 348.41908813 C-75.46256398 353.78713268 -70.10926237 359.16168686 -64.76071525 364.54108477 C-61.43504277 367.88275063 -58.1031058 371.218114 -54.76933289 374.55169678 C-53.22436925 376.09908418 -51.68198669 377.64905355 -50.14238358 379.2017746 C-48.04107229 381.32024145 -45.93070939 383.42926299 -43.81784058 385.53619385 C-42.90674115 386.46142424 -42.90674115 386.46142424 -41.97723567 387.40534616 C-36.48013391 392.85090975 -30.96054089 396 -23 396 C-12.82308051 394.77570893 -6.28433513 387.7098283 0.68725586 380.79321289 C2.18069899 379.31921247 3.6941336 377.86796262 5.20898438 376.41601562 C11.23470056 370.5240082 15.67635014 365.41200958 16.11401367 356.74121094 C15.67507803 347.87226727 10.03210155 341.57200582 3.9597168 335.60327148 C3.0854454 334.72593353 3.0854454 334.72593353 2.19351196 333.83087158 C0.28590805 331.92028662 -1.63215213 330.02060144 -3.55078125 328.12109375 C-4.89269021 326.78224817 -6.23400413 325.44280596 -7.57475281 324.10279846 C-10.37854544 321.30359273 -13.18715264 318.50934657 -15.99975586 315.71899414 C-19.58728487 312.1597182 -23.16610955 308.59185185 -26.74177265 305.02065945 C-30.1749662 301.59264721 -33.61281537 298.16931851 -37.05078125 294.74609375 C-37.69733484 294.10142088 -38.34388844 293.45674801 -39.01003456 292.7925396 C-47.01902664 284.7495775 -47.01902664 284.7495775 -55.43432617 277.14086914 C-57.90353209 275.03730446 -60.05226765 272.878677 -62.15283203 270.40698242 C-66.97632414 264.73677646 -72.33807426 259.60144844 -77.63610458 254.38042641 C-79.58957278 252.45387669 -81.53839732 250.52274252 -83.48587036 248.59013367 C-89.01726664 243.10123581 -94.55150492 237.61529933 -100.1015625 232.14526367 C-103.5093072 228.78599359 -106.9072476 225.41707569 -110.29895401 222.04161644 C-111.58952774 220.76093723 -112.88374827 219.48392207 -114.18166733 218.21068764 C-115.9909249 216.43512414 -117.78743842 214.64754448 -119.58154297 212.85668945 C-120.11864395 212.33554062 -120.65574493 211.81439178 -121.2091217 211.27745056 C-124.12709385 208.3352255 -125.8504565 206.21848114 -126 202 C-122.99856977 194.58360772 -116.76675099 189.36889837 -111.171875 183.84375 C-110.09757942 182.77251878 -109.02387953 181.70068986 -107.95074463 180.6282959 C-105.7059096 178.38804702 -103.45628052 176.15277343 -101.20263672 173.92138672 C-98.33365982 171.08062161 -95.47336221 168.23131975 -92.61622238 165.37865448 C-89.8670752 162.63469989 -87.11328616 159.89542173 -84.359375 157.15625 C-83.84418053 156.64293625 -83.32898605 156.1296225 -82.79817963 155.60075378 C-77.56733725 150.39455962 -72.3205841 145.25313723 -66.68138123 140.48503113 C-63.07226704 137.29738586 -59.93786963 133.6262602 -56.72851562 130.04492188 C-53.1935378 126.17249564 -49.49284662 122.58592756 -45.609375 119.0625 C-35.52817844 109.88570724 -25.94942037 100.1736196 -16.30395508 90.54418945 C-13.48327274 87.72904752 -10.65337485 84.92335594 -7.82138729 82.11959362 C-5.61922618 79.93609524 -3.42383975 77.74587938 -1.23022652 75.55379677 C-0.18939692 74.51597165 0.85390663 73.48062095 1.89982796 72.44792747 C11.89777464 62.86065973 11.89777464 62.86065973 16.03515625 50.04296875 C15.84014413 38.71059755 8.29558372 31.9322102 0.75 24.375 C-0.48169922 23.1065625 -0.48169922 23.1065625 -1.73828125 21.8125 C-8.10240038 15.41812357 -14.31024804 10.49049586 -23.625 9.6875 C-32.00218574 9.85627114 -37.52033646 14.01981015 -43.05078125 19.94140625 Z " fill="#270F5D" transform="translate(468,51)"/>
</svg>
