<?xml version="1.0" encoding="UTF-8"?>
<svg version="1.1" xmlns="http://www.w3.org/2000/svg" width="506" height="508">
<path d="M0 0 C2.62381014 2.36525287 5.11968221 4.84468413 7.61003113 7.34933472 C8.69305031 8.42661557 8.69305031 8.42661557 9.79794866 9.52565968 C12.19842167 11.91587402 14.591751 14.31311059 16.98510742 16.71044922 C18.71173739 18.43272886 20.43878382 20.15459107 22.16621399 21.87606812 C26.35913562 26.05701121 30.54733679 30.24264498 34.73309871 34.4307531 C38.13658934 37.83603116 41.54185033 41.23952916 44.94835854 44.64178848 C45.43429458 45.12712934 45.92023062 45.61247019 46.420892 46.11251835 C47.40824192 47.09865645 48.395593 48.08479339 49.38294522 49.07092918 C58.6274537 58.30457855 67.86545412 67.5447177 77.10148094 76.78684975 C85.54258743 85.23312751 93.99188374 93.67115781 102.4450719 102.10534249 C111.1374733 110.77835309 119.8242865 119.45692465 128.5051201 128.14151394 C133.37381225 133.01211579 138.24466617 137.88050678 143.12138939 142.7430687 C147.70598354 147.31448354 152.28267359 151.89371594 156.85415459 156.47824478 C158.53133858 158.15779451 160.21107674 159.83479819 161.89356613 161.5090332 C164.19303698 163.79803561 166.48302814 166.0961302 168.7709198 168.396698 C169.7680984 169.38281517 169.7680984 169.38281517 170.78542203 170.38885391 C179.26931105 178.97165829 183.9044775 188.16878468 184.4375 200.375 C183.78169637 219.50260579 171.01274826 230.72554125 158 243 C156.8536785 243.98913935 155.70240495 244.97256166 154.546875 245.95092773 C148.57047313 251.16138186 143.03143238 256.82460642 137.43359375 262.43359375 C136.228829 263.63768327 135.02391598 264.84162444 133.81886292 266.04542542 C131.30510542 268.55771625 128.79314563 271.0717869 126.2824707 273.5871582 C123.08300058 276.79232496 119.87906082 279.99298016 116.67375088 283.19230556 C114.18820855 285.6742143 111.70507758 288.15852464 109.2226429 290.64354134 C108.04296062 291.82388515 106.86255046 293.003502 105.68136406 294.18234062 C100.13911241 299.71598874 94.65798751 305.24891783 89.56626892 311.20689392 C86.79230814 314.38259757 83.80174147 317.34086741 80.81640625 320.31640625 C80.15720688 320.97656235 79.49800751 321.63671844 78.8188324 322.31687927 C77.43603165 323.70035506 76.05198924 325.08259083 74.66674805 326.46362305 C72.56769657 328.55731669 70.4740406 330.65629874 68.38085938 332.75585938 C67.02636214 334.10969571 65.67155469 335.46322175 64.31640625 336.81640625 C63.70156876 337.43326797 63.08673126 338.0501297 62.45326233 338.6856842 C59.4105541 341.71233891 56.31803266 344.62750171 53.06835938 347.43164062 C48.71774129 351.19495889 44.65040846 355.20542935 40.58984375 359.27734375 C39.81870743 360.04752335 39.04757111 360.81770294 38.25306702 361.61122131 C36.63419847 363.22941373 35.01657449 364.84885212 33.40014648 366.46948242 C30.94431282 368.93067232 28.48318635 371.38647809 26.02148438 373.84179688 C24.43978347 375.42415867 22.85839283 377.00683067 21.27734375 378.58984375 C20.18799782 379.67615334 20.18799782 379.67615334 19.0766449 380.78440857 C15.08280646 384.79637673 11.25304322 388.89737003 7.56373596 393.19166565 C-0.50926717 402.52744178 -10.44113287 410.13320097 -23.1015625 411.28125 C-35.92631376 411.64166456 -45.13113207 408.10081154 -54.68994141 399.61083984 C-57.07654196 397.33782728 -59.42882077 395.0382103 -61.7487793 392.69726562 C-63.18388593 391.25363554 -64.63671727 389.82971342 -66.09179688 388.40625 C-75.76108822 378.73027636 -82.6437903 368.63013561 -83.4375 354.625 C-82.73470145 337.57449611 -72.04948118 326.60093586 -60.66064453 315.32006836 C-59.40789894 314.0681703 -58.15581616 312.81560867 -56.90434265 311.56243896 C-53.52512438 308.18236422 -50.136774 304.81158312 -46.74664164 301.44245982 C-43.19784035 297.91248359 -39.65760111 294.37394112 -36.11642456 290.83631897 C-29.41838708 284.14758486 -22.71274295 277.46653139 -16.00429618 270.78823906 C-8.36353194 263.18107204 -0.73134141 255.56532768 6.9001596 247.94886959 C22.59062037 232.28971915 38.29175633 216.64131039 54 201 C48.80673876 194.7074504 43.11261274 188.98449639 37.33227539 183.23461914 C36.25879447 182.16306054 35.18554332 181.09127171 34.11250305 180.01927185 C31.81244396 177.72235909 29.51084416 175.42700571 27.20802498 173.13286018 C23.5609129 169.49934297 19.91768276 165.86194987 16.27500916 162.22398376 C7.88393816 153.84492452 -0.51214368 145.47089218 -8.90828705 137.0969162 C-16.60485711 129.42056597 -24.30034472 121.74313874 -31.99177748 114.06164068 C-35.60704063 110.45133619 -39.22472225 106.84347863 -42.84432399 103.23752415 C-45.10242169 100.98692861 -47.35840718 98.73422467 -49.61384773 96.48096657 C-50.6533457 95.44332772 -51.69370117 94.40654703 -52.73501587 93.37073135 C-57.83942013 88.2924175 -62.85069137 83.2033244 -67.49433231 77.6965704 C-69.10658463 75.87990157 -70.829179 74.25880701 -72.625 72.625 C-79.88088822 65.45063861 -82.51359942 56.0313672 -83.3125 46.125 C-82.94808298 34.66864001 -77.71698728 24.25538174 -70 16 C-68.17065942 14.36276201 -66.30636418 12.77418828 -64.4296875 11.19140625 C-62.50844513 9.45858154 -60.72775607 7.70860554 -58.9453125 5.83984375 C-41.49468488 -12.43978613 -20.60052278 -16.57507345 0 0 Z " fill="#270F5D" transform="translate(316,54)"/>
<path d="M0 0 C2.5241518 2.26145726 4.96177887 4.59438439 7.40234375 6.9453125 C8.76868984 8.1014515 10.14257384 9.24880575 11.52734375 10.3828125 C12.47609375 11.2284375 13.42484375 12.0740625 14.40234375 12.9453125 C14.40234375 13.6053125 14.40234375 14.2653125 14.40234375 14.9453125 C15.06234375 14.9453125 15.72234375 14.9453125 16.40234375 14.9453125 C17.58922381 16.3246596 18.77344155 17.70815253 19.890625 19.14453125 C21.91916034 21.56095191 24.16484779 23.72068026 26.40234375 25.9453125 C27.79356021 27.34459938 29.18475328 28.74390974 30.57527161 30.14389038 C32.72201524 32.30421314 34.8715972 34.46170338 37.02124023 36.61914062 C38.14584569 37.7487717 39.26955157 38.8792991 40.39233398 40.01074219 C46.04350123 45.70418749 51.6745674 51.34310417 57.78149414 56.55371094 C59.93789158 58.40511407 61.95946011 60.3698183 63.96484375 62.3828125 C64.64675781 63.06214844 65.32867187 63.74148437 66.03125 64.44140625 C67.89253387 66.40694655 69.64921931 68.3964823 71.40440369 70.45353699 C75.94297346 75.64892699 80.83525773 80.47198844 85.74047852 85.31762695 C86.76650506 86.33516724 87.79226448 87.35297694 88.81777954 88.37103271 C91.01214696 90.54879017 93.20790212 92.72513515 95.40463448 94.90050697 C98.88530036 98.34831073 102.35980654 101.80227749 105.83299255 105.25761414 C106.42159248 105.8431276 107.01019241 106.42864107 107.61662871 107.03189737 C108.81940859 108.22837045 110.02217997 109.42485208 111.22494304 110.62134206 C119.2999468 118.65348774 127.37944399 126.68102992 135.47338867 134.6940918 C140.94966613 140.11574022 146.4168749 145.54635873 151.87404484 150.98724145 C154.7548396 153.85870659 157.63996996 156.72547947 160.53634834 159.58123207 C163.26168656 162.26844543 165.97487239 164.96737097 168.67959976 167.67532349 C169.66763495 168.66041364 170.65989597 169.64128862 171.65690041 170.61730003 C181.52287644 180.28485057 188.09320175 190.29606888 188.71484375 204.3203125 C188.2506138 220.02220795 179.29749876 230.66043526 168.61108398 241.19067383 C167.52386913 242.27675791 166.43753921 243.36372846 165.35202026 244.45150757 C162.42506731 247.37960034 159.4860129 250.29525862 156.5445087 253.20872331 C153.45799998 256.27006495 150.38296931 259.34289399 147.30665588 262.41447449 C141.48425915 268.22447461 135.65175351 274.02421415 129.81547076 279.82026166 C123.18791271 286.40311088 116.57169937 292.99731193 109.95643699 299.59251368 C98.64706392 310.86720381 87.32937724 322.1334905 76.0019989 333.39009094 C75.06982544 334.31648376 74.13765198 335.24287659 73.17723083 336.19734192 C72.37108054 336.99829694 71.56493025 337.79925196 70.73435116 338.62447834 C67.3262506 342.01624981 63.92386109 345.41365259 60.53910828 348.82873535 C60.03053284 349.34164627 59.5219574 349.85455719 58.99797058 350.38301086 C58.45812027 350.92757431 57.91826996 351.47213776 57.36206055 352.03320312 C51.42991853 358.01439101 45.49012222 363.98791701 39.54594707 369.95714569 C35.95769436 373.56106555 32.37230633 377.16774371 28.79321289 380.78076172 C25.3186954 384.28798686 21.83679931 387.78773095 18.3497715 391.28251648 C17.02794025 392.60986274 15.70873859 393.93983337 14.39230919 395.27253723 C12.54548374 397.14129483 10.68932168 399.00029515 8.83081055 400.85742188 C8.29703293 401.40198532 7.76325531 401.94654877 7.21330261 402.50761414 C-0.94668619 410.60251694 -9.93722462 415.00501452 -21.47265625 415.3828125 C-37.81479264 414.97821709 -48.37657522 405.67452621 -59.34765625 394.5078125 C-60.26675781 393.59193359 -61.18585937 392.67605469 -62.1328125 391.73242188 C-71.85334439 381.93451961 -78.58701651 372.61865408 -79.03515625 358.2578125 C-78.42327992 344.65836762 -71.84997613 335.72190946 -62.2578125 326.59765625 C-60.25586458 324.60158776 -58.44736223 322.62552898 -56.62364197 320.47888184 C-51.84094508 314.99155953 -46.67495075 309.89050224 -41.52172852 304.75585938 C-40.41704671 303.65146018 -39.31258612 302.54683968 -38.20832825 301.4420166 C-35.23173296 298.46513621 -32.25208024 295.49133369 -29.27184033 292.51810265 C-26.14971541 289.40225917 -23.0304511 286.28355452 -19.91087341 283.16516113 C-14.01281276 277.27019973 -8.11220925 271.37779054 -2.21067232 265.48630953 C4.51202523 258.77481692 11.23185937 252.06046044 17.95146263 245.34587002 C31.76525464 231.54251053 45.58261207 217.74272515 59.40234375 203.9453125 C53.72021928 198.24001799 48.03539915 192.537429 42.34711742 186.838274 C39.70590888 184.19184686 37.06563867 181.5444975 34.42749023 178.89501953 C31.88151355 176.33817771 29.33310203 173.78378623 26.78298378 171.23107529 C25.81048783 170.25673164 24.83887249 169.28150824 23.86815453 168.30539322 C22.50843136 166.93841163 21.14528117 165.57484145 19.78198242 164.21142578 C19.00698898 163.43421173 18.23199554 162.65699768 17.43351746 161.85623169 C15.35140064 159.79137054 15.35140064 159.79137054 12.40234375 157.9453125 C12.40234375 157.2853125 12.40234375 156.6253125 12.40234375 155.9453125 C11.86714111 155.73535645 11.33193848 155.52540039 10.78051758 155.30908203 C7.47972073 153.4162321 5.00350787 150.81171915 2.3515625 148.125 C1.77453079 147.54751007 1.19749908 146.97002014 0.60298157 146.37503052 C-0.61723287 145.15179883 -1.83501976 143.92614145 -3.05053711 142.69824219 C-4.88808385 140.84260223 -6.73334163 138.99492713 -8.58007812 137.1484375 C-9.77000077 135.9535924 -10.95946807 134.75829363 -12.1484375 133.5625 C-12.69035233 133.01947235 -13.23226715 132.4764447 -13.79060364 131.91696167 C-16.58321686 129.09054887 -19.25561433 126.20808472 -21.84008789 123.18969727 C-25.89676114 118.50980409 -30.2845661 114.1906726 -34.70395279 109.85554695 C-36.2049462 108.38165905 -37.70113394 106.90304475 -39.1960144 105.42295837 C-43.44064544 101.22062486 -47.688063 97.02123495 -51.95166016 92.83813477 C-54.5750644 90.26357996 -57.1883176 87.67908113 -59.79546738 85.08807182 C-60.78126038 84.11208625 -61.77067421 83.13974219 -62.76395035 82.17137337 C-72.53610041 72.63907782 -78.28091222 64.00787883 -78.97265625 50.1953125 C-78.54390542 33.9784429 -69.13585429 24.10077897 -58.27441406 13.1965332 C-56.85087364 11.76105687 -55.447143 10.30790895 -54.04296875 8.85351562 C-39.75580428 -5.54309091 -17.92266126 -14.17642079 0 0 Z M-44.2902832 24.09594727 C-45.90965341 25.75729662 -47.54945384 27.39616457 -49.19335938 29.03320312 C-50.24215745 30.09249208 -51.28972695 31.15299914 -52.3359375 32.21484375 C-53.06252312 32.94173149 -53.06252312 32.94173149 -53.80378723 33.68330383 C-58.33410604 38.37224479 -61.0946043 43.22978118 -61.64453125 49.81640625 C-61.33300641 63.96482624 -46.25902741 74.42403408 -36.93359375 83.70703125 C-35.68244907 84.95625248 -34.43153503 86.20570474 -33.18083191 87.45536804 C-30.50758227 90.12547913 -27.83279318 92.79403459 -25.1567688 95.46136475 C-20.92717347 99.67735531 -16.70146908 103.89723161 -12.47631836 108.11767578 C-3.51973742 117.06320159 5.44109705 126.00446102 14.40234375 134.9453125 C24.10604409 144.62697726 33.80899464 154.3093868 43.50710297 163.99665356 C47.71028888 168.19485082 51.91590197 172.39059692 56.12337589 176.5844965 C58.73077138 179.18445673 61.33611499 181.7864655 63.94089317 184.38904762 C65.152242 185.59851787 66.36445815 186.80712013 67.57758522 188.01480675 C69.22776723 189.65781769 70.87487936 191.30384509 72.52124023 192.95068359 C73.44517075 193.87239349 74.36910126 194.79410339 75.32102966 195.7437439 C77.40234375 197.9453125 77.40234375 197.9453125 78.40234375 199.9453125 C79.06234375 199.9453125 79.72234375 199.9453125 80.40234375 199.9453125 C80.40234375 202.9153125 80.40234375 205.8853125 80.40234375 208.9453125 C79.74234375 208.9453125 79.08234375 208.9453125 78.40234375 208.9453125 C77.1040076 210.22508047 77.1040076 210.22508047 75.7109375 212.00390625 C70.32489592 218.33476961 64.37895558 224.11758175 58.49633789 229.98168945 C56.46971395 232.00295518 54.44848828 234.02950824 52.42773438 236.05664062 C51.11881005 237.36490404 49.80957551 238.67285717 48.5 239.98046875 C47.90703629 240.5754567 47.31407257 241.17044464 46.70314026 241.78346252 C43.71573111 244.75456341 40.67471069 247.61039828 37.484375 250.36328125 C33.1297656 254.13178452 29.05728405 258.14619734 24.9921875 262.22265625 C24.22105118 262.99283585 23.44991486 263.76301544 22.65541077 264.55653381 C21.03654222 266.17472623 19.41891824 267.79416462 17.80249023 269.41479492 C15.34665657 271.87598482 12.8855301 274.33179059 10.42382812 276.78710938 C8.84212722 278.36947117 7.26073658 279.95214317 5.6796875 281.53515625 C4.59034157 282.62146584 4.59034157 282.62146584 3.47898865 283.72972107 C0.22526229 286.99821746 -2.93830275 290.29132207 -5.93847656 293.79492188 C-10.02604346 298.53080328 -14.46434737 302.89386189 -18.91971397 307.2814045 C-20.45783537 308.79715613 -21.99166456 310.31713492 -23.52436829 311.83836365 C-27.87659348 316.1573089 -32.23312862 320.4718351 -36.59985352 324.77612305 C-39.28580798 327.4242697 -41.9642585 330.07981446 -44.63816261 332.74012566 C-45.65079731 333.74475858 -46.66619106 334.74661901 -47.68448448 335.74551582 C-57.6045982 345.1487672 -57.6045982 345.1487672 -61.6875 357.84375 C-61.17263137 369.88719883 -50.98927631 377.76031203 -43.09765625 385.7578125 C-42.37707031 386.50740234 -41.65648438 387.25699219 -40.9140625 388.02929688 C-35.83594822 393.16709966 -31.89346003 396.33004254 -24.5703125 397.37890625 C-23.60996094 397.38019531 -22.64960937 397.38148438 -21.66015625 397.3828125 C-20.22349609 397.41181641 -20.22349609 397.41181641 -18.7578125 397.44140625 C-11.17056585 396.25033045 -5.91285381 391.85282153 -0.69140625 386.5 C-0.08123657 385.88891388 0.52893311 385.27782776 1.15759277 384.64822388 C2.43275612 383.3670626 3.70310077 382.08108838 4.96875 380.79052734 C6.91424263 378.80818827 8.87560536 376.84265554 10.83984375 374.87890625 C12.08038065 373.62854953 13.31999826 372.37727991 14.55859375 371.125 C15.43964783 370.24060745 15.43964783 370.24060745 16.33850098 369.33834839 C19.39034375 366.63348241 19.39034375 366.63348241 20.40234375 362.9453125 C21.06234375 362.9453125 21.72234375 362.9453125 22.40234375 362.9453125 C23.79816947 361.52554697 23.79816947 361.52554697 25.27734375 359.6328125 C28.20686633 356.16933452 31.31958769 353.12683992 34.69995117 350.10424805 C42.30209528 343.22296377 49.52263134 335.96993306 56.765625 328.71484375 C58.21129571 327.26984868 59.65711466 325.82500192 61.10307312 324.3802948 C64.11078569 321.37404508 67.11671144 318.36602354 70.12133789 315.35668945 C73.95516926 311.51714098 77.79350194 307.68212865 81.63317585 303.84842396 C84.61110401 300.8741222 87.5866306 297.89742705 90.56145287 294.92001915 C91.97558598 293.50522359 93.39044944 292.09115762 94.80608559 290.67786598 C104.21241465 281.32918758 104.21241465 281.32918758 113.09028625 271.48420715 C114.88053731 269.38444568 116.79329224 267.42484953 118.7421875 265.47265625 C119.49564453 264.71791016 120.24910156 263.96316406 121.02539062 263.18554688 C121.78916016 262.42564453 122.55292969 261.66574219 123.33984375 260.8828125 C124.09974609 260.11904297 124.85964844 259.35527344 125.64257812 258.56835938 C129.05289365 255.16386848 132.47698394 251.83080775 136.140625 248.69921875 C141.6410279 243.95857392 146.75382051 238.81678073 151.89453125 233.69335938 C153.65572532 231.94194971 155.42732096 230.20150892 157.19921875 228.4609375 C158.33529217 227.33138933 159.47073119 226.20120266 160.60546875 225.0703125 C161.38993378 224.30436768 161.38993378 224.30436768 162.19024658 223.52294922 C167.22649009 218.45613578 170.89268746 213.30581418 170.94921875 205.93554688 C170.92601562 204.91944336 170.92601562 204.91944336 170.90234375 203.8828125 C170.9178125 203.20154297 170.93328125 202.52027344 170.94921875 201.81835938 C170.87577895 192.26200562 163.43936222 186.69972645 157.10546875 180.41796875 C155.74406769 179.05725502 155.74406769 179.05725502 154.35516357 177.66905212 C152.43842299 175.75386962 150.51839182 173.84207199 148.59570312 171.93286133 C146.15216954 169.5062559 143.71520831 167.07318198 141.28050613 164.63771915 C138.9332813 162.2908346 136.58181304 159.94822628 134.23046875 157.60546875 C133.36560852 156.74172134 132.50074829 155.87797394 131.60968018 154.98805237 C127.22020469 150.63242468 122.77167429 146.41100679 118.07270813 142.38986206 C115.72683969 140.36112913 113.52863609 138.203913 111.33984375 136.0078125 C110.56511719 135.23566406 109.79039062 134.46351563 108.9921875 133.66796875 C107.05448659 131.63089856 105.22397394 129.58201945 103.40084839 127.4475708 C98.76828254 122.14225444 93.80409745 117.17536119 88.83642578 112.18652344 C87.78579929 111.12797708 86.73534853 110.06925627 85.68505859 109.01037598 C82.26378658 105.56313044 78.83728308 102.12111099 75.41015625 98.6796875 C74.22443012 97.488594 73.03870907 96.29749544 71.85299301 95.10639191 C66.92064438 90.15246264 61.98687484 85.19995577 57.04937935 80.25115585 C49.99916339 73.18468308 42.95759389 66.10983808 35.92773545 59.0231111 C30.96727863 54.02390909 25.99723151 49.03437066 21.02000701 44.05186296 C18.05411882 41.08233151 15.09251376 38.10881113 12.1411171 35.1248703 C9.36619565 32.31978272 6.57952456 29.52691591 3.78361511 26.74275208 C2.76385877 25.72321565 1.74831976 24.69943939 0.73752975 23.67101288 C-5.72227463 17.10473638 -12.02397122 11.00666219 -21.66015625 10.5078125 C-32.02445981 11.65940178 -37.32107934 16.93589345 -44.2902832 24.09594727 Z " fill="#270F5D" transform="translate(84.59765625,50.0546875)"/>
<path d="M0 0 C1.98 1.65 3.96 3.3 6 5 C5.01 5.66 4.02 6.32 3 7 C1.68 5.68 0.36 4.36 -1 3 C-0.67 2.01 -0.34 1.02 0 0 Z " fill="#1E0B46" transform="translate(191,178)"/>
</svg>
