<?xml version="1.0" encoding="UTF-8"?>
<svg version="1.1" xmlns="http://www.w3.org/2000/svg" width="512" height="512">
<path d="M0 0 C1.28871506 -0.0159874 2.57743011 -0.03197479 3.90519714 -0.04844666 C5.30569053 -0.0548258 6.7061887 -0.06021777 8.10668945 -0.06469727 C9.55532417 -0.07367451 11.003958 -0.08279654 12.45259094 -0.09205627 C15.48794804 -0.10852299 18.5231952 -0.11624159 21.55859375 -0.11914062 C25.42425327 -0.12450889 29.2888601 -0.16213249 33.15422344 -0.20788479 C36.14764551 -0.2378225 39.14081977 -0.24486783 42.13437843 -0.24586678 C43.55798962 -0.25003944 44.98160359 -0.26235344 46.40506554 -0.28338432 C56.05301905 -0.41453335 64.02435778 0.34520346 71.43095398 7.01637268 C77.16570495 12.98776649 78.73257474 20.10724612 79.7121582 28.10717773 C80.90321997 31.30035761 82.48372297 31.85538265 85.5324707 33.30639648 C89.04278789 33.75011539 89.04278789 33.75011539 92.93383789 33.67529297 C93.66138275 33.67905945 94.38892761 33.68282593 95.13851929 33.68670654 C96.71264104 33.69312345 98.28680155 33.6928236 99.86092377 33.68652153 C102.35922443 33.67738092 104.85677931 33.68767 107.3550415 33.70314026 C114.4558398 33.74314833 121.55657841 33.74444965 128.6574707 33.7421875 C133.00762937 33.74213617 137.35738704 33.76141773 141.70743561 33.79152107 C144.15644496 33.8022798 146.60466658 33.79025392 149.0536499 33.7776947 C158.25224442 33.79936135 165.83457768 34.29704961 173.09106445 40.48999023 C173.71110352 41.2337793 174.33114258 41.97756836 174.9699707 42.74389648 C175.60805664 43.48510742 176.24614258 44.22631836 176.90356445 44.98999023 C180.38034878 49.93419432 180.83356348 54.41035086 180.83886719 60.33447266 C180.8471907 61.12868622 180.85551422 61.92289978 180.86408997 62.74118042 C180.88813621 65.36062565 180.89695682 67.9798214 180.90356445 70.59936523 C180.91253707 72.429144 180.92165903 74.25892203 180.93092346 76.08869934 C180.94740297 79.92438536 180.9551113 83.75998424 180.95800781 87.59570312 C180.96338097 92.49034809 181.00102116 97.38416361 181.04675198 102.27857494 C181.07662615 106.05948305 181.08373366 109.84019427 181.08473396 113.6212101 C181.08891813 115.42439879 181.10127937 117.22758905 181.12225151 119.03066063 C181.33551576 138.95708955 181.33551576 138.95708955 173.80613708 147.19523621 C165.55778114 155.24855354 155.40067535 154.7449315 144.62060547 154.71044922 C143.00842823 154.71615793 141.39625502 154.72312412 139.78408813 154.73124695 C135.42246777 154.74913793 131.06104904 154.74801768 126.69940305 154.74230456 C123.05137346 154.73920691 119.40338227 154.74531155 115.75535816 154.75134331 C107.14611752 154.76537351 98.53697614 154.76383971 89.92773438 154.75244141 C81.06057123 154.7409607 72.19371056 154.75503846 63.32658726 154.78183788 C55.6991506 154.80402324 48.0718087 154.8106259 40.44434208 154.80476147 C35.89510313 154.80139759 31.34605806 154.80376909 26.79684639 154.8210125 C22.5178532 154.83652495 18.23930678 154.83247873 13.96033096 154.81370735 C12.39508713 154.81003338 10.82980988 154.81309504 9.26459694 154.82359314 C-0.92476367 154.88668769 -8.13073203 153.79584085 -16.7175293 148.18139648 C-23.87575858 140.69779314 -25.08263577 133.064447 -24.90698242 123.05249023 C-24.86522617 121.59544279 -24.82290171 120.13841152 -24.7800293 118.68139648 C-24.75489503 117.18534034 -24.73209097 115.68924314 -24.71166992 114.19311523 C-24.65712605 110.56334218 -24.57114391 106.93513948 -24.4675293 103.30639648 C-29.0517916 103.35818597 -33.63415757 103.4532482 -38.2175293 103.55639648 C-39.51948242 103.57057617 -40.82143555 103.58475586 -42.1628418 103.59936523 C-43.41323242 103.6315918 -44.66362305 103.66381836 -45.9519043 103.69702148 C-47.10400391 103.71796875 -48.25610352 103.73891602 -49.44311523 103.76049805 C-53.16083554 104.43153636 -54.14430929 105.37528425 -56.4675293 108.30639648 C-57.07033037 111.02427818 -57.07033037 111.02427818 -56.98651123 114.06439209 C-57.00042404 115.23945816 -57.01433685 116.41452423 -57.02867126 117.62519836 C-57.0236409 118.91056992 -57.01861053 120.19594147 -57.01342773 121.52026367 C-57.02216372 122.89030633 -57.0326496 124.26033879 -57.04475403 125.63035583 C-57.07263218 129.34702366 -57.07601833 133.06335888 -57.07503414 136.78011608 C-57.07816172 140.66527456 -57.10377664 144.5502829 -57.12701416 148.43536377 C-57.16758972 155.79112497 -57.18791848 163.14679748 -57.20098805 170.50265336 C-57.21685287 178.87751522 -57.25526626 187.25222604 -57.29558134 195.62700033 C-57.37800165 212.85344393 -57.42910367 230.07979004 -57.4675293 247.30639648 C-46.5775293 247.30639648 -35.6875293 247.30639648 -24.4675293 247.30639648 C-24.52553711 243.88522461 -24.58354492 240.46405273 -24.64331055 236.93920898 C-24.68238329 233.5997143 -24.71269831 230.26024576 -24.7421875 226.9206543 C-24.76722247 224.61226877 -24.80126084 222.30396165 -24.84472656 219.99584961 C-24.90586303 216.66427183 -24.93385037 213.33374836 -24.95581055 210.00170898 C-24.98161697 208.98150665 -25.0074234 207.96130432 -25.03401184 206.91018677 C-25.03705955 198.99937784 -23.15667904 192.33443827 -17.71162415 186.38919067 C-9.70571789 178.87182208 -1.43017287 178.83124068 9.08325195 178.83764648 C10.50661006 178.83053284 11.92996533 178.82283211 13.35331726 178.8145752 C16.3297015 178.80117018 19.3058207 178.79954293 22.28222656 178.80541992 C26.07166229 178.81130477 29.85981179 178.78075855 33.64899921 178.74030304 C36.5875467 178.71428096 39.52579069 178.71156173 42.46443748 178.7151947 C43.86012179 178.71351617 45.25582207 178.7039973 46.65139198 178.68605042 C56.19920609 178.57678718 64.10526202 179.42137246 71.43208313 186.01623535 C77.15692254 191.98219657 78.72082869 199.13379923 79.80981445 207.10717773 C80.78655844 210.07964728 81.82327348 210.74833956 84.5324707 212.30639648 C87.93614001 212.75277299 87.93614001 212.75277299 91.80444336 212.67529297 C92.5302359 212.67905945 93.25602844 212.68282593 94.0038147 212.68670654 C95.57740616 212.69313305 97.15103645 212.69281454 98.72462845 212.68652153 C101.22312439 212.67739308 103.72087258 212.6876572 106.21932983 212.70314026 C113.32190793 212.74317516 120.42442743 212.74445311 127.52709961 212.7421875 C131.87610973 212.74213612 136.22471965 212.76144812 140.57361984 212.79152107 C143.02091995 212.80226797 145.4674295 212.79025906 147.91470337 212.7776947 C157.12471266 212.79964607 165.42644972 213.27969701 172.93481445 219.20092773 C173.44141602 219.83385742 173.94801758 220.46678711 174.4699707 221.11889648 C174.99461914 221.7440918 175.51926758 222.36928711 176.05981445 223.01342773 C179.79804937 228.83396857 180.97845263 233.71588955 180.93652344 240.59326172 C180.94681831 241.78983902 180.94681831 241.78983902 180.95732117 243.0105896 C180.97551607 245.62890787 180.97176225 248.24662275 180.96606445 250.86499023 C180.97062976 252.69670301 180.97593637 254.52841408 180.98194885 256.36012268 C180.99086559 260.19230117 180.98847321 264.02427111 180.97851562 267.85644531 C180.96702761 272.75338956 180.98724212 277.64961252 181.01643276 282.54646206 C181.03482929 286.32730132 181.03449544 290.10796882 181.02879524 293.88884163 C181.02864245 295.69365513 181.03465175 297.49848059 181.04708672 299.30325127 C181.06206072 301.83266586 181.05127372 304.36076176 181.03417969 306.89013672 C181.04384766 307.62648849 181.05351563 308.36284027 181.06347656 309.12150574 C180.97325157 315.53695058 178.81814548 320.64370319 174.63793945 325.51342773 C174.00500977 326.04323242 173.37208008 326.57303711 172.7199707 327.11889648 C172.09477539 327.6615918 171.46958008 328.20428711 170.82543945 328.76342773 C165.42532132 332.39723806 160.89737394 333.68087316 154.41801453 333.70080566 C153.73713597 333.70689677 153.05625741 333.71298787 152.35474616 333.71926355 C150.09179264 333.73580406 147.82940734 333.73113082 145.56640625 333.72631836 C143.93629374 333.733664 142.30618643 333.74225166 140.67608643 333.75198364 C136.2606348 333.77415825 131.84537003 333.7771323 127.42987037 333.77523613 C123.73724719 333.77511622 120.04466329 333.78368878 116.35205108 333.79201365 C107.63587835 333.81123377 98.91980139 333.81413688 90.20361328 333.80737305 C81.227945 333.80073566 72.25268801 333.82358757 63.27710313 333.86068678 C55.55710035 333.89143209 47.83722955 333.9027385 40.11716682 333.89884996 C35.5124963 333.89678717 30.90814581 333.90218865 26.30353355 333.92674255 C21.97031319 333.94908675 17.63775895 333.94706865 13.30453491 333.92681503 C11.72035512 333.92341831 10.13612982 333.92843612 8.55201149 333.94279861 C-1.2734759 334.02568733 -9.82141445 333.52556787 -17.36653614 326.55098724 C-24.12894535 319.43211549 -24.90158657 312.34119992 -24.76049805 302.90405273 C-24.7562532 301.82635117 -24.75200836 300.7486496 -24.74763489 299.63829041 C-24.73091649 296.21489903 -24.69327613 292.79210829 -24.6550293 289.36889648 C-24.63997366 287.04012898 -24.62628679 284.71135219 -24.61401367 282.38256836 C-24.58359434 276.6900966 -24.5248579 270.9989145 -24.4675293 265.30639648 C-35.3575293 265.30639648 -46.2475293 265.30639648 -57.4675293 265.30639648 C-57.42725713 283.36082403 -57.3705374 301.41494372 -57.28362656 319.46919632 C-57.24380309 327.85194473 -57.21142747 336.23459881 -57.1965332 344.61743164 C-57.18353375 351.92321633 -57.15661303 359.22879376 -57.11291623 366.53446174 C-57.0902627 370.40345008 -57.07462092 374.27218243 -57.07564545 378.14124298 C-57.07638979 381.7824548 -57.05853114 385.4230999 -57.02636147 389.06416512 C-57.0137716 391.03860162 -57.02094411 393.01313308 -57.02867126 394.9875946 C-57.00780205 396.75019371 -57.00780205 396.75019371 -56.98651123 398.54840088 C-56.98282406 399.56974751 -56.97913689 400.59109413 -56.97533798 401.64339066 C-56.3298914 405.02818508 -55.15966865 406.21638448 -52.4675293 408.30639648 C-49.3825347 408.94635609 -49.3825347 408.94635609 -45.9519043 408.91577148 C-44.70151367 408.94799805 -43.45112305 408.98022461 -42.1628418 409.01342773 C-40.86088867 409.02760742 -39.55893555 409.04178711 -38.2175293 409.05639648 C-36.90010742 409.08604492 -35.58268555 409.11569336 -34.2253418 409.14624023 C-30.97267587 409.21695036 -27.72072736 409.26964434 -24.4675293 409.30639648 C-24.50680542 407.93088623 -24.50680542 407.93088623 -24.546875 406.52758789 C-24.63280509 403.07950714 -24.6951146 399.63258653 -24.7421875 396.18383789 C-24.76711767 394.6999297 -24.80107555 393.21614154 -24.84472656 391.73266602 C-25.13045715 381.7623492 -24.81210352 373.17900709 -17.74023438 365.40844727 C-9.87938316 357.7739905 -0.58555417 357.84955112 9.77856445 357.87280273 C11.15804804 357.8682321 12.53752936 357.86292393 13.91700745 357.85691833 C16.79746801 357.84802312 19.67765078 357.85036892 22.55810547 357.86035156 C26.22751533 357.87183689 29.89596215 357.85161951 33.56524563 357.82243443 C36.41109688 357.80398245 39.25672113 357.80438259 42.10261726 357.81007195 C44.10599508 357.81029738 46.10935187 357.79348584 48.11265564 357.77626038 C56.94287581 357.84334448 62.8246945 359.41753382 70.2824707 363.99389648 C76.29765352 370.17616772 78.22906136 377.12926337 79.66137695 385.48608398 C80.71921409 388.91100962 81.44036806 389.56655076 84.5324707 391.30639648 C87.90231914 391.75940714 87.90231914 391.75940714 91.72851562 391.69116211 C92.44616089 391.69653488 93.16380615 391.70190765 93.90319824 391.70744324 C95.45877074 391.71721157 97.01439767 391.72016823 98.56999779 391.71708679 C101.03881533 391.71259945 103.50691945 391.72663693 105.97566223 391.7454834 C111.22375336 391.78225369 116.47176977 391.79596006 121.7199707 391.80639648 C127.78704094 391.81850557 133.85376406 391.84025819 139.92067909 391.88639832 C142.34074996 391.89988353 144.76037255 391.89581194 147.1804657 391.89099121 C157.16973801 391.92571696 166.39640535 392.21324423 173.97535706 399.49551392 C181.86463318 408.67053633 181.2556362 418.73156786 181.16137695 430.15795898 C181.16220702 431.98538352 181.16467161 433.81280796 181.16868591 435.64022827 C181.17153233 439.45463759 181.15695358 443.26845595 181.12939453 447.08276367 C181.09526509 451.95614245 181.1013571 456.82846895 181.12005711 461.70189857 C181.13065535 465.46990639 181.12166449 469.23767188 181.10667229 473.0056572 C181.101514 474.80207982 181.10194349 476.59852798 181.10821724 478.39494705 C181.11370585 480.90976144 181.09318162 483.42309846 181.06591797 485.93774414 C181.07244385 486.66938278 181.07896973 487.40102142 181.08569336 488.15483093 C180.96540491 494.7241417 178.70391747 499.85914878 174.34887695 504.76733398 C173.23319336 505.71479492 173.23319336 505.71479492 172.0949707 506.68139648 C171.35375977 507.32850586 170.61254883 507.97561523 169.84887695 508.64233398 C165.18315984 511.99409704 161.26220917 512.55832462 155.56913757 512.57382202 C154.88038963 512.57835313 154.19164168 512.58288425 153.48202258 512.58755267 C151.18065464 512.60018428 148.87952372 512.59857712 146.578125 512.59692383 C144.92536109 512.60290989 143.27259997 512.60971562 141.61984253 512.61727905 C137.13419236 512.63493912 132.6486185 512.63963446 128.16293693 512.64091063 C125.3588944 512.64233287 122.55487123 512.64660386 119.75083351 512.65190506 C109.96392206 512.67040589 100.17706508 512.67857567 90.39013672 512.67700195 C81.27479918 512.67580078 72.15969851 512.69689816 63.0444209 512.72848928 C55.21240143 512.75466332 47.38045927 512.76536876 39.54839641 512.76409113 C34.87337816 512.7635818 30.1985704 512.76924911 25.52359581 512.79044724 C21.12483489 512.80984845 16.72648483 512.80994131 12.3277092 512.79541397 C10.7168893 512.79332705 9.10604356 512.79801984 7.49526787 512.81013489 C-1.93129361 512.87642 -9.21020639 512.81931968 -16.67456055 506.41186523 C-17.20436523 505.77893555 -17.73416992 505.14600586 -18.2800293 504.49389648 C-18.82272461 503.86870117 -19.36541992 503.24350586 -19.92456055 502.59936523 C-25.20052759 494.7588775 -24.86302915 487.32050154 -24.76049805 478.18530273 C-24.75489548 476.71557551 -24.7506285 475.24584264 -24.74763489 473.77610779 C-24.73623799 469.92746222 -24.70681612 466.07916197 -24.67352295 462.23065186 C-24.64271013 458.29566111 -24.62910571 454.360614 -24.61401367 450.42553711 C-24.58194069 442.71900031 -24.53080784 435.01274698 -24.4675293 427.30639648 C-25.35424316 427.32734375 -26.24095703 427.34829102 -27.15454102 427.36987305 C-30.49075009 427.43864291 -33.82619025 427.48848032 -37.1628418 427.52612305 C-38.59818517 427.54605837 -40.03344927 427.57321723 -41.46850586 427.6081543 C-51.29760788 427.84120135 -60.13325605 427.6208822 -68.1237793 421.15795898 C-68.7322168 420.42319336 -69.3406543 419.68842773 -69.9675293 418.93139648 C-70.5965918 418.20178711 -71.2256543 417.47217773 -71.8737793 416.72045898 C-74.93190868 412.08829242 -75.71766966 407.63626462 -75.70803833 402.15603638 C-75.71216232 400.33882835 -75.71216232 400.33882835 -75.71636963 398.48490906 C-75.7055838 396.51153313 -75.7055838 396.51153313 -75.69458008 394.49829102 C-75.69401548 393.08855701 -75.69433347 391.67882241 -75.69546509 390.26908875 C-75.69603771 386.45339816 -75.68429805 382.63783393 -75.67031717 378.82217264 C-75.65779476 374.83033804 -75.65663812 370.83850038 -75.65426636 366.84664917 C-75.64805603 359.2925953 -75.63165127 351.73859948 -75.61156738 344.18457115 C-75.58919446 335.5824273 -75.57821145 326.98028065 -75.56817651 318.37811494 C-75.54728463 300.68750255 -75.51061399 282.99696971 -75.4675293 265.30639648 C-86.6875293 265.30639648 -97.9075293 265.30639648 -109.4675293 265.30639648 C-109.4361084 268.2833252 -109.4046875 271.26025391 -109.37231445 274.32739258 C-109.27269751 284.1859364 -109.20654193 294.04450301 -109.15665627 303.90341759 C-109.12540329 309.87834774 -109.08303961 315.85276028 -109.01489258 321.82739258 C-108.94948655 327.59812094 -108.91377791 333.36835282 -108.89826584 339.13942337 C-108.88721771 341.33619624 -108.86564311 343.53294331 -108.83314896 345.72950363 C-108.51936121 367.82898314 -108.51936121 367.82898314 -115.4675293 375.30639648 C-116.20874023 376.12495117 -116.94995117 376.94350586 -117.71362305 377.78686523 C-154.10739348 406.13637981 -214.12515961 405.19098139 -257.5300293 400.05639648 C-280.83737891 397.04917945 -312.11611664 392.16222386 -327.8112793 372.63452148 C-331.48042395 367.34046991 -331.61604811 362.77296425 -331.61470032 356.53352356 C-331.61837701 355.62597264 -331.62205369 354.71842171 -331.6258418 353.78336924 C-331.63689157 350.72959727 -331.64072468 347.6758593 -331.64453125 344.62207031 C-331.65079493 342.43759045 -331.65744164 340.25311165 -331.66444397 338.06863403 C-331.68186262 332.12425294 -331.69240813 326.17987989 -331.7006495 320.23547959 C-331.7057979 316.52254677 -331.71187371 312.80961646 -331.71816063 309.09668541 C-331.73721526 297.48250592 -331.75144574 285.8683328 -331.7597726 274.25414068 C-331.76074112 272.91731123 -331.76171537 271.58048178 -331.76269531 270.24365234 C-331.76317905 269.58054024 -331.76366279 268.91742813 -331.76416119 268.23422172 C-331.77245899 257.49562988 -331.79779184 246.75714952 -331.83027599 236.01860634 C-331.86336648 224.9895483 -331.88102731 213.96054977 -331.88455361 202.93144244 C-331.88690546 196.74063121 -331.89588372 190.54999618 -331.92101479 184.35923195 C-331.94427946 178.53403519 -331.94853501 172.70913084 -331.9382534 166.88389969 C-331.93775754 164.74738404 -331.94409264 162.61085408 -331.95780945 160.4743824 C-331.9755083 157.55396724 -331.96843172 154.63460371 -331.95527649 151.71418762 C-331.96624574 150.87185524 -331.97721498 150.02952286 -331.98851663 149.16166526 C-331.90621182 141.5758741 -329.1275106 135.48905789 -324.05737305 129.80249023 C-294.95208796 102.41348731 -245.16218614 101.19188077 -207.63012695 102.1496582 C-177.72414112 103.13121363 -140.03899461 108.38284083 -117.49487305 130.06420898 C-112.8116299 135.24374958 -109.33866482 140.47774444 -109.34727478 147.61540222 C-109.34521278 148.93419624 -109.34521278 148.93419624 -109.34310913 150.27963257 C-109.34670441 151.24132355 -109.35029968 152.20301453 -109.35400391 153.19384766 C-109.35385788 154.20865707 -109.35371185 155.22346649 -109.3535614 156.26902771 C-109.35425904 159.62916183 -109.36204452 162.98924078 -109.36987305 166.34936523 C-109.37173775 168.67678294 -109.37316141 171.00420103 -109.37416077 173.33161926 C-109.37798178 179.46203695 -109.38780856 185.59243101 -109.39886475 191.72283936 C-109.40908777 197.97659994 -109.4136603 204.23036433 -109.41870117 210.48413086 C-109.42943117 222.75823146 -109.44702464 235.03230831 -109.4675293 247.30639648 C-98.2475293 247.30639648 -87.0275293 247.30639648 -75.4675293 247.30639648 C-75.48847656 243.0216333 -75.50942383 238.73687012 -75.53100586 234.32226562 C-75.59730316 220.16090128 -75.64167965 205.9995308 -75.67477798 191.8380518 C-75.69537883 183.25246822 -75.72345185 174.66703197 -75.76928711 166.08154297 C-75.80923097 158.59599612 -75.83498012 151.11055599 -75.84388328 143.62490553 C-75.8490853 139.66346389 -75.86125975 135.7023275 -75.89044952 131.74098396 C-75.91773828 128.00713374 -75.92594741 124.27371251 -75.91996002 120.53977203 C-75.92157334 118.52684029 -75.94302536 116.51395454 -75.96520996 114.50114441 C-75.92747735 106.15954249 -74.94024009 99.61080692 -69.6081543 93.00170898 C-68.67229492 92.2244043 -68.67229492 92.2244043 -67.7175293 91.43139648 C-67.10393555 90.89772461 -66.4903418 90.36405273 -65.8581543 89.81420898 C-57.4092696 84.48533726 -49.07024519 84.94566846 -39.4675293 85.11889648 C-38.01051186 85.13396908 -36.55347937 85.14765293 -35.09643555 85.15991211 C-31.55315005 85.19271745 -28.01043759 85.24435741 -24.4675293 85.30639648 C-24.47863235 84.50174957 -24.48973541 83.69710266 -24.50117493 82.86807251 C-24.60177214 75.24827854 -24.677693 67.62881102 -24.72659016 60.00852394 C-24.75257488 56.09173653 -24.78776534 52.17550232 -24.84472656 48.2590332 C-24.89944915 44.47236142 -24.92903328 40.68621836 -24.94191551 36.89918137 C-24.95108397 35.46157901 -24.96898651 34.02400235 -24.99617958 32.58662796 C-25.17858737 22.53612865 -24.07573713 14.75246029 -17.4050293 6.86889648 C-16.7656543 6.35327148 -16.1262793 5.83764648 -15.4675293 5.30639648 C-14.8281543 4.77014648 -14.1887793 4.23389648 -13.5300293 3.68139648 C-9.09761724 0.72645511 -5.28590353 0.04971718 0 0 Z M-4.79136658 20.19470215 C-7.2182395 24.70004441 -7.03443342 28.66372516 -7.00097656 33.70874023 C-7.00959213 34.75482452 -7.0182077 35.80090881 -7.02708435 36.87869263 C-7.04977362 40.33401278 -7.04300001 43.78852392 -7.03393555 47.24389648 C-7.03916954 49.64616131 -7.0454452 52.04842408 -7.05271912 54.45068359 C-7.06312866 59.48439202 -7.05855324 64.51781785 -7.04394531 69.55151367 C-7.02675142 76.00482088 -7.05025851 82.45723825 -7.08543491 88.91044617 C-7.10738498 93.87070628 -7.10597322 98.83075266 -7.0976696 103.79104614 C-7.09684889 106.17051164 -7.10373508 108.54999264 -7.11844063 110.92941284 C-7.13584266 114.25485104 -7.12137864 117.57867959 -7.09863281 120.90405273 C-7.11032501 121.88810089 -7.12201721 122.87214905 -7.13406372 123.88601685 C-7.12140976 124.79439301 -7.1087558 125.70276917 -7.09571838 126.63867188 C-7.09513207 127.42399796 -7.09454576 128.20932404 -7.09394169 129.01844788 C-6.12491393 132.55778674 -4.32207325 134.07326135 -1.4675293 136.30639648 C1.6669851 137.05199378 1.6669851 137.05199378 5.13635254 136.9413147 C5.78638166 136.94911465 6.43641078 136.9569146 7.10613775 136.96495092 C9.27682599 136.98484059 11.44575493 136.96912111 13.61645508 136.95336914 C15.17557293 136.96014672 16.73468277 136.96905065 18.29377747 136.97991943 C22.52322093 137.00270309 26.7520542 136.99388058 30.98150826 136.97802401 C35.40879072 136.96536006 39.83602114 136.97710649 44.26330566 136.98495483 C51.69801203 136.99404997 59.13247002 136.98206711 66.56713867 136.95825195 C75.16118128 136.93104083 83.7546308 136.93985509 92.34865904 136.96738398 C99.72887099 136.99007798 107.10890446 136.99327374 114.48914003 136.98019063 C118.89635724 136.97239768 123.30329572 136.97135012 127.710495 136.98787308 C131.85413546 137.00232295 135.99701173 136.99228743 140.14056969 136.96340179 C141.66071491 136.95679363 143.18092452 136.95868417 144.70104408 136.96971512 C146.77775864 136.98339503 148.85202981 136.96623214 150.92858887 136.9413147 C152.09000648 136.93942957 153.2514241 136.93754444 154.44803619 136.93560219 C158.49290643 136.11047349 159.99473559 134.49768503 162.5324707 131.30639648 C163.27963193 127.81421346 163.27963193 127.81421346 163.16357422 123.91748047 C163.17072952 123.19165771 163.17788483 122.46583496 163.18525696 121.71801758 C163.20210857 119.32886003 163.18276674 116.94158828 163.16137695 114.55249023 C163.1622059 112.88769882 163.16466626 111.22290749 163.16868591 109.55812073 C163.17154134 106.073652 163.15686676 102.58982699 163.12939453 99.10546875 C163.09528503 94.64068742 163.10134081 90.17705488 163.12005711 85.71221828 C163.13062781 82.27633599 163.12168921 78.84072081 163.10667229 75.40486336 C163.10149228 73.75864518 163.1019701 72.11239909 163.10821724 70.46618462 C163.11367164 68.16548578 163.0932913 65.86642956 163.06591797 63.56591797 C163.05971939 62.2575145 163.05352081 60.94911102 163.0471344 59.60105896 C162.76223097 56.29482429 162.76223097 56.29482429 160.94789124 53.88381958 C157.63104066 51.71770539 155.30250583 51.80759794 151.35229492 51.80810547 C150.63625595 51.80258667 149.92021698 51.79706787 149.18247986 51.79138184 C147.63018406 51.78206987 146.07781186 51.78195012 144.52550888 51.78997612 C142.06049439 51.80262708 139.59659656 51.79129508 137.13162231 51.77394104 C132.77886385 51.74722122 128.42637896 51.74164529 124.07354736 51.74304199 C117.12858692 51.74526789 110.1839683 51.7308788 103.23913956 51.68745613 C100.82516431 51.67769447 98.41173544 51.68629896 95.99777222 51.69615173 C85.75523482 51.68264763 75.782988 51.5143474 67.9934082 44.01733398 C63.01800322 38.1905228 61.75899515 31.57103699 60.4387207 24.16186523 C59.35933753 20.76087773 58.56605107 20.08363096 55.5324707 18.30639648 C52.81967685 17.84083357 52.81967685 17.84083357 49.81762695 17.88647461 C48.66963623 17.87056274 47.52164551 17.85465088 46.33886719 17.83825684 C45.10338135 17.83805542 43.86789551 17.837854 42.5949707 17.83764648 C41.32274658 17.83003296 40.05052246 17.82241943 38.73974609 17.8145752 C36.04956839 17.80376829 33.36026937 17.79955523 30.67016602 17.80541992 C27.22639426 17.81132132 23.78402981 17.78070361 20.3405304 17.74030304 C17.05036988 17.70821348 13.76026363 17.7125423 10.4699707 17.71264648 C9.23448486 17.69625122 7.99899902 17.67985596 6.72607422 17.66296387 C5.5780835 17.67226929 4.43009277 17.68157471 3.24731445 17.69116211 C2.23789795 17.68910767 1.22848145 17.68705322 0.18847656 17.68493652 C-2.60063122 18.13339571 -2.60063122 18.13339571 -4.79136658 20.19470215 Z M-309.4675293 141.30639648 C-311.85123765 143.98703737 -313.3007102 145.62395471 -314.1550293 149.11889648 C-313.04717992 154.25528903 -310.50655574 157.01967725 -306.4675293 160.30639648 C-268.83697363 184.50305613 -213.41582996 183.03452216 -171.41333008 174.40307617 C-156.53572002 171.14794033 -138.47274746 166.76729629 -128.5925293 154.32202148 C-127.19333764 152.1523517 -127.19333764 152.1523517 -127.2175293 148.61889648 C-130.19974042 140.71603701 -138.34366323 136.30246925 -145.6472168 132.76733398 C-189.98089832 113.8503364 -269.54211954 109.48976186 -309.4675293 141.30639648 Z M-313.4675293 177.30639648 C-313.67096227 183.87120393 -313.81070966 190.43519467 -313.90698242 197.00244141 C-313.94712716 199.23452119 -314.0016575 201.46639173 -314.07104492 203.69775391 C-314.16849466 206.91287881 -314.21354535 210.12521671 -314.2487793 213.34155273 C-314.29006958 214.33349136 -314.33135986 215.32542999 -314.37390137 216.34742737 C-314.37653578 220.44761327 -314.35147236 223.19261523 -311.74467468 226.47721863 C-284.78695691 250.52805939 -235.01427887 248.63231417 -201.2277832 247.16577148 C-177.18278762 245.76932891 -149.72429153 242.03838209 -129.85668945 227.38012695 C-126.36121416 222.8830869 -126.83659955 219.07699892 -126.97924805 213.53686523 C-126.98632278 212.50072586 -126.99339752 211.46458649 -127.00068665 210.39704895 C-127.02862323 207.09525652 -127.091363 203.79517433 -127.1550293 200.49389648 C-127.180113 198.25238456 -127.20292604 196.01084599 -127.22338867 193.76928711 C-127.27844723 188.28107568 -127.36206649 182.79385827 -127.4675293 177.30639648 C-131.58716637 178.64317813 -135.34572162 180.17787121 -139.2175293 182.11889648 C-184.66133663 203.24718247 -249.24249863 201.77526018 -295.5847168 184.86499023 C-300.3167737 183.02994394 -304.81629447 180.82581535 -309.2800293 178.40795898 C-311.35704464 177.15647528 -311.35704464 177.15647528 -313.4675293 177.30639648 Z M-6.4675293 202.30639648 C-7.19199078 205.77609185 -7.15085385 209.17435919 -7.11450195 212.70874023 C-7.12326355 213.75482452 -7.13202515 214.80090881 -7.14105225 215.87869263 C-7.16304642 219.33418336 -7.14849228 222.7883929 -7.1315918 226.24389648 C-7.13495989 228.64616135 -7.13981246 231.04842456 -7.14608765 233.45068359 C-7.15345906 238.48445872 -7.1427441 243.51779013 -7.11938477 248.55151367 C-7.0908977 255.00485045 -7.10730012 261.45714754 -7.13724709 267.91044617 C-7.15531229 272.87072589 -7.14956541 277.830759 -7.13660812 282.79104614 C-7.13327201 285.17050296 -7.13736836 287.54998215 -7.14900589 289.92941284 C-7.16170095 293.25489634 -7.14235386 296.5786948 -7.11450195 299.90405273 C-7.12462311 300.88810089 -7.13474426 301.87214905 -7.14517212 302.88601685 C-7.131073 303.79439301 -7.11697388 304.70276917 -7.10244751 305.63867188 C-7.10056238 306.42399796 -7.09867725 307.20932404 -7.096735 308.01844788 C-6.12382482 311.55619154 -4.32199561 313.07341304 -1.4675293 315.30639648 C1.66717838 316.04928727 1.66717838 316.04928727 5.13635254 315.93458557 C5.78638166 315.94167996 6.43641078 315.94877435 7.10613775 315.95608371 C9.27685126 315.97363832 11.44576792 315.95557514 13.61645508 315.9375 C15.17557082 315.94263987 16.73468076 315.94992167 18.29377747 315.95918274 C22.52323995 315.97769664 26.75207201 315.96475857 30.98150826 315.94509244 C35.4087815 315.92870438 39.83601486 315.93751905 44.26330566 315.94261169 C51.69801908 315.94713248 59.13248089 315.9312638 66.56713867 315.90332031 C75.16111931 315.8712684 83.75464618 315.87128414 92.34865904 315.88853508 C100.61777654 315.90440206 108.88672778 315.89766553 117.15583801 315.88059807 C120.67410206 315.87372769 124.19223282 315.87475986 127.710495 315.88214302 C131.85405457 315.88980749 135.9970981 315.87767486 140.14056969 315.85029411 C141.66071224 315.84341083 143.18090299 315.84331175 144.70104408 315.85050964 C146.77746707 315.85920819 148.85229884 315.84324523 150.92858887 315.82106018 C152.09000648 315.81825326 153.2514241 315.81544634 154.44803619 315.81255436 C158.20962936 315.19527427 159.88512778 314.0120027 162.5324707 311.30639648 C163.29073398 307.92207129 163.29073398 307.92207129 163.17944336 304.046875 C163.18820496 303.32280457 163.19696655 302.59873413 163.20599365 301.85272217 C163.2279718 299.4629698 163.21344118 297.07507338 163.1965332 294.68530273 C163.19990222 293.02147568 163.20475555 291.35765103 163.21102905 289.6938324 C163.21839847 286.2075964 163.2076947 282.72200128 163.18432617 279.23583984 C163.1558597 274.77209388 163.1722272 270.30985241 163.20218849 265.84616184 C163.22027901 262.41021951 163.21449519 258.9746323 163.20154953 255.53867912 C163.19821918 253.89327757 163.20228961 252.24784356 163.2139473 250.60247993 C163.22668352 248.29922597 163.20724438 245.99838706 163.17944336 243.6953125 C163.17546539 242.38611343 163.17148743 241.07691437 163.16738892 239.7280426 C162.35283432 235.33831569 161.15280992 233.88401057 157.5324707 231.30639648 C154.07553312 230.56880986 154.07553312 230.56880986 150.22290039 230.69458008 C149.5051091 230.68891525 148.78731781 230.68325043 148.04777527 230.67741394 C145.68276188 230.66394757 143.31929149 230.68483729 140.9543457 230.70483398 C139.3015234 230.69932999 137.64870794 230.69120194 135.99591064 230.68057251 C131.64598017 230.65769442 127.2965522 230.66189908 122.94659424 230.67437744 C115.99938157 230.69268094 109.05246671 230.6825514 102.10532379 230.64851761 C99.68959186 230.64245383 97.27450677 230.65562622 94.85882568 230.67050171 C84.24763035 230.67794276 75.33577558 230.0314176 67.25512695 222.38452148 C62.53963512 216.69599165 61.14046472 209.60364986 60.2199707 202.43530273 C59.28995604 199.55542778 58.10590082 198.8601579 55.5324707 197.30639648 C52.86756791 196.84116335 52.86756791 196.84116335 49.92529297 196.88647461 C48.80055069 196.87056274 47.67580841 196.85465088 46.51698303 196.83825684 C45.30650803 196.83805542 44.09603302 196.837854 42.84887695 196.83764648 C40.97739235 196.8262262 40.97739235 196.8262262 39.06809998 196.8145752 C36.42919076 196.80376807 33.7911772 196.79955505 31.15234375 196.80541992 C27.77816006 196.81131529 24.4054157 196.78072911 21.03151035 196.74030304 C17.80399304 196.70816995 14.57652955 196.71254235 11.34887695 196.71264648 C10.14042618 196.69625122 8.9319754 196.67985596 7.68690491 196.66296387 C5.99506325 196.676922 5.99506325 196.676922 4.26904297 196.69116211 C3.27961197 196.68910767 2.29018097 196.68705322 1.27076721 196.68493652 C-2.75217367 197.5979482 -4.09944405 198.92917601 -6.4675293 202.30639648 Z M-313.4675293 247.30639648 C-313.59443749 253.62331664 -313.68192515 259.93990742 -313.7421875 266.2578125 C-313.76731215 268.40637497 -313.8014179 270.55485213 -313.84472656 272.703125 C-313.90546722 275.7937526 -313.93375973 278.88324911 -313.95581055 281.97436523 C-313.98161697 282.93287888 -314.0074234 283.89139252 -314.03401184 284.87895203 C-314.03596535 289.5372951 -314.03010472 291.59314551 -311.06469727 295.3527832 C-309.77909912 296.31982178 -309.77909912 296.31982178 -308.4675293 297.30639648 C-307.79334961 297.83104492 -307.11916992 298.35569336 -306.42456055 298.89624023 C-295.57252857 305.71582317 -282.97953028 308.99261201 -270.5300293 311.55639648 C-269.8057373 311.70737793 -269.08144531 311.85835938 -268.33520508 312.01391602 C-252.63644823 315.00914022 -236.78391753 315.68540777 -220.8425293 315.61889648 C-219.92887604 315.61707367 -219.01522278 315.61525085 -218.07388306 315.6133728 C-189.73079036 315.51855093 -152.8343907 314.40216526 -129.7175293 295.56811523 C-127.32332301 293.15146327 -127.34488359 291.21355888 -127.35400391 287.94848633 C-127.35407944 287.04770355 -127.35415497 286.14692078 -127.35423279 285.21884155 C-127.35939407 284.24484406 -127.36455536 283.27084656 -127.36987305 282.26733398 C-127.37128799 281.27134186 -127.37270294 280.27534973 -127.37416077 279.24917603 C-127.37976994 276.05988596 -127.392324 272.87066543 -127.4050293 269.68139648 C-127.41004312 267.52254333 -127.41460623 265.36368908 -127.41870117 263.20483398 C-127.42974234 257.90533099 -127.44648942 252.6058687 -127.4675293 247.30639648 C-128.34369652 247.64781929 -128.34369652 247.64781929 -129.23756409 247.99613953 C-131.93872864 249.04564571 -134.64254517 250.08815285 -137.34643555 251.13061523 C-138.72393982 251.66761047 -138.72393982 251.66761047 -140.12927246 252.2154541 C-156.42251419 258.47822491 -173.15753539 261.46983867 -190.4675293 263.30639648 C-191.36221924 263.40283447 -192.25690918 263.49927246 -193.17871094 263.59863281 C-202.0798509 264.45335536 -210.97214344 264.50643974 -219.9050293 264.49389648 C-220.7008844 264.49329224 -221.4967395 264.49268799 -222.31671143 264.49206543 C-234.79308506 264.46639581 -247.104821 264.13093094 -259.4675293 262.30639648 C-260.79083252 262.11303711 -260.79083252 262.11303711 -262.14086914 261.91577148 C-280.04815349 259.19424225 -296.83011925 254.4536523 -313.4675293 247.30639648 Z M-313.4675293 315.30639648 C-313.64536886 321.74721889 -313.7677472 328.18740612 -313.85205078 334.63012695 C-313.88720126 336.82047178 -313.93493252 339.01065297 -313.99560547 341.20043945 C-314.08076143 344.35335671 -314.12027175 347.5040996 -314.15112305 350.65795898 C-314.18725204 351.63318512 -314.22338104 352.60841125 -314.26060486 353.6131897 C-314.305322 358.78073739 -314.305322 358.78073739 -311.97848511 363.23149109 C-285.58085471 386.36402635 -234.73517735 385.69567635 -202.1706543 383.74780273 C-179.41712083 382.12087021 -146.95240089 379.59449904 -129.34790039 363.35058594 C-126.61267481 358.92244678 -126.96698573 355.07766984 -127.0769043 349.97436523 C-127.08539398 348.48674431 -127.08539398 348.48674431 -127.09405518 346.96907043 C-127.11639586 343.81018234 -127.16658892 340.65244012 -127.2175293 337.49389648 C-127.23759724 335.34873061 -127.25584749 333.2035469 -127.2722168 331.05834961 C-127.31625285 325.80730945 -127.3831418 320.55693485 -127.4675293 315.30639648 C-129.16039062 316.01759644 -129.16039062 316.01759644 -130.88745117 316.74316406 C-132.40364813 317.37510838 -133.91992868 318.0068522 -135.4362793 318.63842773 C-136.54567871 319.10545105 -136.54567871 319.10545105 -137.67749023 319.58190918 C-153.64694283 326.21410286 -170.38598016 329.07578632 -187.4675293 331.30639648 C-188.27907471 331.41242188 -189.09062012 331.51844727 -189.92675781 331.62768555 C-227.71366843 335.781975 -271.39321527 333.87773649 -306.4675293 318.30639648 C-308.80027557 317.30502778 -311.1335512 316.3048907 -313.4675293 315.30639648 Z M-6.4675293 381.30639648 C-7.18759614 384.77681669 -7.14062397 388.17464747 -7.09863281 391.70874023 C-7.10578812 392.75482452 -7.11294342 393.80090881 -7.12031555 394.87869263 C-7.13721478 398.33420572 -7.11779143 401.78842377 -7.09643555 405.24389648 C-7.09726412 407.64615995 -7.09972308 410.04842335 -7.10374451 412.45068359 C-7.10660337 417.48446729 -7.09189184 422.51780625 -7.06445312 427.55151367 C-7.03037096 434.0047436 -7.03638814 440.45717818 -7.0551157 446.91044617 C-7.06568289 451.87071361 -7.05675027 456.83079591 -7.04173088 461.79104614 C-7.03654659 464.17049612 -7.03703384 466.54996541 -7.04327583 468.92941284 C-7.04872436 472.25471594 -7.02836275 475.57887946 -7.00097656 478.90405273 C-7.00750244 479.88810089 -7.01402832 480.87214905 -7.02075195 481.88601685 C-7.0080275 482.79439301 -6.99530304 483.70276917 -6.98219299 484.63867188 C-6.97938607 485.42399796 -6.97657915 486.20932404 -6.97368717 487.01844788 C-6.23688302 490.34897005 -4.93673167 491.97289102 -2.4675293 494.30639648 C0.60039322 495.05437873 0.60039322 495.05437873 4.09875488 494.93458557 C5.08582593 494.94522715 5.08582593 494.94522715 6.09283781 494.95608371 C8.29661793 494.97367844 10.49863757 494.95555446 12.70239258 494.9375 C14.28268741 494.94263833 15.86297653 494.94991897 17.44325256 494.95918274 C21.73468508 494.97771623 26.02549728 494.96474621 30.31690407 494.94509244 C34.80604412 494.92872054 39.29514443 494.93751679 43.78430176 494.94261169 C51.32334312 494.9471343 58.86213651 494.93125258 66.40112305 494.90332031 C75.11950086 494.87126758 83.8374314 494.87128355 92.55584097 494.88853508 C100.93975532 494.90439423 109.32350556 494.89767057 117.70741272 494.88059807 C121.27674218 494.87372218 124.84594031 494.87476551 128.41526794 494.88214302 C132.61790448 494.88979949 136.82003149 494.87770105 141.0225811 494.85029411 C142.56571884 494.84340242 144.1089041 494.84332074 145.65204048 494.85050964 C147.75732601 494.85918785 149.86103312 494.84327956 151.96618652 494.82106018 C153.14457344 494.81825326 154.32296036 494.81544634 155.53705597 494.81255436 C159.16681924 494.19920582 160.35364188 493.22887789 162.5324707 490.30639648 C163.13301955 486.90671179 163.13301955 486.90671179 163.03417969 483.03100586 C163.03958267 482.30532913 163.04498566 481.5796524 163.05055237 480.83198547 C163.06304104 478.4376219 163.04654903 476.04446051 163.02856445 473.65014648 C163.02871944 471.98392677 163.03020836 470.31770669 163.03297424 468.65148926 C163.03435829 465.16113325 163.02179958 461.67118815 162.99902344 458.1809082 C162.97063854 453.7084049 162.97337593 449.23658428 162.98611355 444.76403046 C162.99307076 441.32389502 162.98528101 437.88391719 162.97285652 434.44380188 C162.96834242 432.7947907 162.96800487 431.14576259 162.97192192 429.49674988 C162.97483462 427.19140989 162.95832559 424.88700845 162.93652344 422.58178711 C162.92841896 420.61465759 162.92841896 420.61465759 162.92015076 418.60778809 C162.51130361 415.12614254 162.02734989 413.71953831 159.5324707 411.30639648 C155.9711195 410.11927942 153.13438392 410.18174635 149.37402344 410.18041992 C148.64837692 410.17855179 147.92273041 410.17668365 147.1750946 410.17475891 C145.59874769 410.17075597 144.02239497 410.16868017 142.44604301 410.16829681 C139.08421485 410.16487351 135.72257871 410.14349468 132.36081791 410.12306595 C126.10477823 410.08511882 119.84894139 410.05377275 113.59277344 410.0559082 C109.23830757 410.05669923 104.88454264 410.0331624 100.53026009 409.99402618 C98.87786073 409.98362002 97.22537992 409.98200217 95.57296562 409.98967743 C85.44881552 410.03198629 76.54906084 409.75023946 68.64280701 402.59661865 C63.16192167 396.92138257 61.4443127 389.98437521 60.25512695 382.38452148 C59.2573942 379.51536567 57.8688525 378.23553254 55.5324707 376.30639648 C52.87484393 375.69796029 52.87484393 375.69796029 49.92529297 375.77294922 C48.80055069 375.75711288 47.67580841 375.74127655 46.51698303 375.72496033 C45.30650803 375.7299202 44.09603302 375.73488007 42.84887695 375.73999023 C41.60122055 375.73379166 40.35356415 375.72759308 39.06809998 375.72120667 C36.42894583 375.71410094 33.79131438 375.71535125 31.15234375 375.72998047 C27.77810105 375.74715865 24.40556282 375.72368606 21.03151035 375.68849087 C17.80394591 375.66118939 14.57652428 375.67125536 11.34887695 375.67749023 C10.14042618 375.66423203 8.9319754 375.65097382 7.68690491 375.63731384 C6.55901047 375.64984695 5.43111603 375.66238007 4.26904297 375.67529297 C3.27961197 375.67625473 2.29018097 375.67721649 1.27076721 375.6782074 C-2.74856008 376.60027611 -4.10016766 377.92974918 -6.4675293 381.30639648 Z " fill="#280F5D" transform="translate(331.467529296875,-0.306396484375)"/>
<path d="M0 0 C3.00808769 2.63207673 3.88934188 4.09629201 4.375 8.0625 C4.00950778 10.9255224 3.60997354 12.62740741 2 15 C-1.69329658 17.46219772 -4.7149344 17.79198683 -9 17 C-11.99028679 15.00647547 -13.57809415 13.59744505 -14.51171875 10.0625 C-14.87264231 5.82766355 -14.25691211 4.31471734 -11.5 0.9375 C-7.7262185 -1.70057001 -4.22533956 -1.62720524 0 0 Z " fill="#270F5D" transform="translate(355,427)"/>
<path d="M0 0 C2.69990662 1.79993774 4.5418865 3.083773 6 6 C6.55881444 10.09797257 6.1370529 11.76872323 4 15.375 C0.47775176 18.45696721 0.47775176 18.45696721 -3 18.6875 C-6.18845573 18.41575661 -7.2010566 17.86596227 -10 16 C-12.20809832 12.68785252 -12.81013892 10.85009577 -12.55078125 6.9375 C-10.89487619 1.11247227 -5.51629276 -1.05631138 0 0 Z " fill="#270F5D" transform="translate(353,281)"/>
<path d="M0 0 C2.75329021 1.79562405 4.52627461 3.05254922 6 6 C6.43023798 9.87214182 6.31669086 11.52496371 4.125 14.8125 C1.56894626 17.44373179 0.77721341 17.94931217 -2.875 18.1875 C-5.94628429 18.00322294 -7.48618314 17.7058043 -10 16 C-12.4596 12.3106 -12.7996897 9.28167192 -12 5 C-8.62505893 0.09099481 -5.84787119 -0.93983644 0 0 Z " fill="#270F5D" transform="translate(353,102)"/>
<path d="M0 0 C2.43119623 1.87015094 3.64069173 3.28138345 5 6 C5.40391526 9.63523738 5.23463713 11.56005537 3.5 14.8125 C0.61049649 17.34081557 -1.18067296 18.0202944 -4.9609375 18.25390625 C-8.9939561 17.75171045 -10.43144284 16.14648253 -13 13 C-13.79957444 10.14108996 -13.75676293 7.86530088 -13 5 C-9.34058275 -0.48912588 -6.15377764 -0.87911109 0 0 Z " fill="#270F5D" transform="translate(354,68)"/>
<path d="M0 0 C2.9033447 2.60556576 3.87407924 4.13654335 4.4375 8 C3.94702329 11.36326885 3.01736344 13.28431844 1 16 C-2.22938367 17.61469184 -5.50856753 17.58079278 -9 17 C-12 14.9375 -12 14.9375 -14 12 C-14.68577608 7.73294881 -14.50023114 5.79347009 -12.1875 2.125 C-8.28149586 -1.66940403 -5.0774203 -1.24708569 0 0 Z " fill="#270F5D" transform="translate(355,461)"/>
<path d="M0 0 C2.875 1.5625 2.875 1.5625 5 4 C6.14009771 7.91908586 6.40888632 10.03158504 4.8125 13.8125 C2.85980888 16.16919618 1.94024566 17.18326509 -1 18 C-4.78825503 17.86470518 -7.23184073 17.49240979 -10.4375 15.4375 C-12.25759307 12.59815481 -12.63409202 10.33922437 -12.4453125 6.97265625 C-10.97112337 0.44225703 -5.94328138 -0.95517022 0 0 Z " fill="#270F5D" transform="translate(46,341)"/>
<path d="M0 0 C2.69990662 1.79993774 4.5418865 3.083773 6 6 C6.43023798 9.87214182 6.31669086 11.52496371 4.125 14.8125 C1.56894626 17.44373179 0.77721341 17.94931217 -2.875 18.1875 C-5.94628429 18.00322294 -7.48618314 17.7058043 -10 16 C-12.44521115 12.33218328 -12.72237759 9.26546767 -12 5 C-8.53870498 0.50031647 -5.60476862 -0.54948712 0 0 Z " fill="#280F5D" transform="translate(353,247)"/>
<path d="M0 0 C2.125 0.4140625 2.125 0.4140625 4.625 1.9765625 C6.62633412 5.22873044 7.05811096 7.60138749 7.125 11.4140625 C5.82580758 14.66204356 4.81552626 16.00347932 1.8125 17.7890625 C-1.52104738 18.56430608 -3.59444656 18.39124863 -6.875 17.4140625 C-9.25 15.8515625 -9.25 15.8515625 -10.875 13.4140625 C-11.45699542 8.83084854 -11.42377707 6.55933639 -9.4375 2.4140625 C-6.17116408 -0.13527285 -4.06116718 -0.25382295 0 0 Z " fill="#270F5D" transform="translate(44.875,272.5859375)"/>
<path d="M0 0 C2.90398503 2.11912421 3.84245093 3.50634623 4.9375 6.9375 C5.01245915 10.61049821 4.178742 12.09501066 2 15 C0 17 0 17 -3.8125 17.4375 C-7.17733329 17.33330662 -8.04370031 16.97086646 -11 15 C-13.77041398 10.84437903 -13.70476018 8.93332128 -13 4 C-9.343307 -0.91762162 -5.77832349 -1.5330246 0 0 Z " fill="#280F5D" transform="translate(47,205)"/>
</svg>
