<?xml version="1.0" encoding="UTF-8"?>
<svg version="1.1" xmlns="http://www.w3.org/2000/svg" width="512" height="512">
<path d="M0 0 C21.11432696 -0.11686929 42.22860049 -0.20500586 63.34318542 -0.25906086 C73.14735739 -0.28482814 82.95132823 -0.31995047 92.75537109 -0.37719727 C101.3018889 -0.4270774 109.84826102 -0.45930174 118.39492035 -0.47044247 C122.91920509 -0.47695344 127.44307311 -0.49222514 131.96722412 -0.52865028 C136.2288718 -0.56268274 140.48993259 -0.57303845 144.75170326 -0.56553841 C146.31255601 -0.56690973 147.87342914 -0.57679936 149.43416405 -0.59602737 C163.6018817 -0.76195484 163.6018817 -0.76195484 169.51499939 3.43792439 C173.8840259 8.03371359 174.43552072 12.13257456 174.38768005 18.28775024 C174.39575836 19.53442508 174.39575836 19.53442508 174.40399987 20.80628526 C174.41829963 23.58926947 174.41117085 26.3717794 174.40405273 29.15478516 C174.40975511 31.15063357 174.41671885 33.14647873 174.42485046 35.14231873 C174.44280804 40.56151968 174.44160901 45.98055896 174.43590808 51.39978075 C174.43282111 55.92057286 174.43890294 60.4413337 174.44494683 64.96212137 C174.45899793 75.62256043 174.45742484 86.28291937 174.44604492 96.94335938 C174.43455259 107.95262538 174.44865684 118.9616481 174.4754414 129.97088206 C174.49756375 139.4164043 174.50424392 148.86184997 174.49836498 158.30739629 C174.49498717 163.95194474 174.49746552 169.59633707 174.51461601 175.2408638 C174.53002875 180.54491839 174.5261929 185.84861084 174.50731087 191.15265083 C174.50360974 193.10258856 174.50677747 195.0525528 174.51719666 197.0024662 C174.53030402 199.65747343 174.51895137 202.31126338 174.50120544 204.96621704 C174.51081045 205.74393042 174.52041546 206.5216438 174.53031152 207.32292426 C174.45836408 212.52799263 174.45836408 212.52799263 172.35229552 214.69674873 C169.34526244 216.36274675 167.29659517 216.37599815 163.86270046 216.37752342 C161.96204552 216.38925829 161.96204552 216.38925829 160.02299351 216.40123022 C158.61407751 216.39474383 157.20516281 216.38797386 155.79624939 216.38095093 C154.30175403 216.38440642 152.80726122 216.38917026 151.31277376 216.39513266 C147.20016421 216.40768714 143.08776279 216.40145218 138.97515237 216.39217401 C134.54225318 216.38540206 130.10939043 216.39585547 125.67649841 216.40411377 C116.99044005 216.41747283 108.30445933 216.4145638 99.61839788 216.40587585 C92.5613988 216.39910868 85.50442152 216.39817838 78.44742012 216.4014473 C76.94251116 216.40213684 76.94251116 216.40213684 75.4072 216.40284032 C73.36926932 216.40379947 71.33133865 216.40477211 69.29340798 216.4057581 C50.1717808 216.41431824 31.05019672 216.40446784 11.9285766 216.388357 C-4.49107794 216.37495121 -20.91066887 216.37728286 -37.33032227 216.39111328 C-56.38372087 216.40715455 -75.43708167 216.41349637 -94.49048609 216.40427649 C-96.52073601 216.40332081 -98.55098595 216.4023777 -100.58123589 216.4014473 C-102.07974463 216.40075306 -102.07974463 216.40075306 -103.60852628 216.40004479 C-110.66040899 216.39745069 -117.71226779 216.40183489 -124.7641468 216.40888596 C-133.35313282 216.41728494 -141.94203654 216.41505459 -150.53101308 216.39904372 C-154.91616063 216.39113966 -159.3011708 216.38810559 -163.68631744 216.39799118 C-167.6962778 216.40689452 -171.70597273 216.40207786 -175.71590882 216.38605852 C-177.17074284 216.38269214 -178.62559904 216.38444616 -180.08041895 216.39168589 C-182.04977802 216.40073855 -184.01919942 216.38970744 -185.9885416 216.37752342 C-187.08490423 216.37703637 -188.18126685 216.37654931 -189.31085259 216.37604749 C-192 216 -192 216 -193.85264468 214.60684568 C-195.38480274 212.4610923 -195.36974532 211.0888827 -195.36076355 208.46321106 C-195.36488754 207.53353012 -195.36901154 206.60384918 -195.3732605 205.64599609 C-195.36247467 204.62820068 -195.35168884 203.61040527 -195.34057617 202.56176758 C-195.34101425 201.48843674 -195.34145233 200.4151059 -195.34190369 199.30924988 C-195.3398102 195.75415996 -195.31645218 192.199539 -195.29296875 188.64453125 C-195.2873748 186.18259438 -195.28310376 183.72065417 -195.28010559 181.25871277 C-195.26864104 174.77311004 -195.23915979 168.28770828 -195.20599365 161.80218506 C-195.17532758 155.1865104 -195.16160765 148.57080334 -195.14648438 141.95507812 C-195.11429182 128.96996625 -195.06365104 115.98499381 -195 103 C-194.12608612 102.99668985 -193.25217224 102.99337971 -192.35177612 102.98996925 C-171.07699507 102.90871099 -149.80228499 102.8166092 -128.52760315 102.71247292 C-118.23928307 102.66237404 -107.95097086 102.61593077 -97.66259766 102.578125 C-88.69413641 102.54516008 -79.72573664 102.50530396 -70.75734329 102.45720994 C-66.00967939 102.43198973 -61.26205604 102.41019522 -56.51434326 102.39665604 C-52.04265949 102.38379505 -47.57111508 102.36169722 -43.09950829 102.33261681 C-41.46130063 102.32357255 -39.82307056 102.31785818 -38.18483925 102.31578636 C-35.94102195 102.31244143 -33.6975945 102.29690462 -31.45385742 102.2784729 C-29.57339973 102.27017676 -29.57339973 102.27017676 -27.654953 102.26171303 C-20.28549556 101.73402279 -13.67147773 99.87630147 -8 95 C-2.72016463 88.48324008 -0.85748411 83.39188322 -0.79467773 75.0402832 C-0.78477814 74.23029877 -0.77487854 73.42031433 -0.76467896 72.58578491 C-0.73308191 69.90748013 -0.7083136 67.22915761 -0.68359375 64.55078125 C-0.66302267 62.69418374 -0.64202616 60.83759089 -0.62062073 58.98100281 C-0.56541593 54.09349344 -0.5159996 49.20594192 -0.46777344 44.31835938 C-0.41754682 39.33134202 -0.3618668 34.34438592 -0.30664062 29.35742188 C-0.19907851 19.5716669 -0.09762918 9.78585876 0 0 Z M12.3062439 37.30990601 C10.49911234 41.03153392 10.76786823 43.08616967 12 47 C16.5882107 51.09988064 22.06308222 50.42234241 27.86132812 50.38818359 C29.50360634 50.39606903 29.50360634 50.39606903 31.17906189 50.40411377 C34.79660322 50.41731295 38.41370422 50.40857561 42.03125 50.3984375 C44.54561447 50.40045825 47.05997836 50.40336969 49.57434082 50.40713501 C54.84338877 50.41155826 60.11232229 50.40541351 65.38134766 50.39111328 C71.46683832 50.37478754 77.55202742 50.38007639 83.63751078 50.3965925 C89.49962204 50.41186356 95.36161899 50.41022596 101.22373962 50.4014473 C103.71483909 50.39944525 106.20594625 50.40190472 108.69703674 50.40888596 C112.17778954 50.41649981 115.65796231 50.4048963 119.13867188 50.38818359 C120.16947372 50.39425629 121.20027557 50.40032898 122.26231384 50.40658569 C129.14724102 50.3920036 129.14724102 50.3920036 135 47 C136.658596 44.19103937 136.658596 44.19103937 137 41 C135.69132936 38.05549106 134.90597137 36.45298569 132 35 C130.45077976 34.89706618 128.89723815 34.85620967 127.34463501 34.84609985 C126.3632103 34.83749939 125.38178558 34.82889893 124.37062073 34.82003784 C123.29005905 34.81577789 122.20949738 34.81151794 121.09619141 34.80712891 C119.96115677 34.79895142 118.82612213 34.79077393 117.6566925 34.78234863 C113.88832127 34.75746839 110.11998772 34.74097368 106.3515625 34.7265625 C105.06757946 34.72123882 103.78359642 34.71591515 102.4607048 34.71043015 C97.06656561 34.68919701 91.67243874 34.67006635 86.27826881 34.65880775 C78.54538977 34.6425619 70.81301267 34.60936688 63.08032286 34.55240691 C56.98917333 34.5090665 50.89822103 34.49306583 44.80692673 34.48667526 C42.21448566 34.4799407 39.62205253 34.46466203 37.02971268 34.44078445 C33.4069486 34.40931432 29.78546141 34.40906933 26.16259766 34.41650391 C24.54782784 34.3918959 24.54782784 34.3918959 22.9004364 34.36679077 C17.08826452 34.32042248 17.08826452 34.32042248 12.3062439 37.30990601 Z M12.80587769 67.31089783 C10.67243006 69.96184965 10.67243006 69.96184965 10.9375 73.625 C12.11769499 77.37385467 12.71299573 78.06804522 16 80 C18.30729524 80.44899904 18.30729524 80.44899904 20.81321716 80.38768005 C21.77911774 80.39758469 22.74501831 80.40748932 23.7401886 80.41769409 C24.7932872 80.41319244 25.8463858 80.4086908 26.93139648 80.40405273 C28.04560974 80.41091599 29.159823 80.41777924 30.30780029 80.42485046 C33.99569394 80.44317115 37.68316431 80.43927328 41.37109375 80.43359375 C43.93172851 80.43815301 46.49236204 80.44345782 49.05299377 80.44947815 C54.4221857 80.45841965 59.79122298 80.45620759 65.16040039 80.44604492 C71.36237803 80.43456518 77.56392317 80.44863678 83.76584381 80.4754414 C89.73740173 80.5002819 95.70882538 80.50277438 101.68043709 80.49632454 C104.21899192 80.496171 106.75755495 80.50224249 109.29607964 80.51461601 C112.84411783 80.52947271 116.39120093 80.51888678 119.93920898 80.50170898 C120.99028336 80.51137695 122.04135773 80.52104492 123.12428284 80.53100586 C127.58442098 80.48572798 130.24672117 80.45088125 134.13270569 78.12489319 C136.31240335 75.64449967 136.9176573 74.29370797 137 71 C135.85984646 67.67455219 135.03317287 67.02211525 132 65 C129.77260941 64.6910095 129.77260941 64.6910095 127.26907349 64.72584534 C126.29613342 64.71587021 125.32319336 64.70589508 124.32077026 64.69561768 C123.25472565 64.694953 122.18868103 64.69428833 121.09033203 64.69360352 C119.96651123 64.68528 118.84269043 64.67695648 117.68481445 64.66838074 C113.95911219 64.64422846 110.23358481 64.63550233 106.5078125 64.62890625 C103.92332912 64.61994423 101.33884629 64.61082248 98.75436401 64.60154724 C93.33215727 64.58504067 87.91002118 64.57732088 82.48779297 64.57446289 C76.22387003 64.5708278 69.96043714 64.54093519 63.69666398 64.49905831 C57.66795985 64.46016801 51.63952725 64.44887006 45.61068344 64.44773674 C43.0469891 64.44352444 40.48329472 64.43105005 37.91968155 64.41021919 C34.33550401 64.38341355 30.75268306 64.38809926 27.16845703 64.40063477 C25.5754628 64.37838333 25.5754628 64.37838333 23.95028687 64.35568237 C19.16284401 64.40344841 16.76917084 64.44351685 12.80587769 67.31089783 Z M11 100 C10.74588432 103.63825863 10.74588432 103.63825863 12 107 C14.89176355 109.76695915 16.90428036 110.37633163 20.85791016 110.38768005 C21.83367004 110.39758469 22.80942993 110.40748932 23.8147583 110.41769409 C25.41078888 110.41094162 25.41078888 110.41094162 27.0390625 110.40405273 C28.16463562 110.41091599 29.29020874 110.41777924 30.44989014 110.42485046 C34.17505462 110.44317043 37.89980008 110.43927372 41.625 110.43359375 C44.21045062 110.43815272 46.79590003 110.44345744 49.38134766 110.44947815 C54.80181377 110.45841927 60.22211852 110.45620755 65.64257812 110.44604492 C71.90705801 110.43455938 78.17111001 110.44864671 84.43553352 110.4754414 C90.46478706 110.50026389 96.49382026 110.50277777 102.52313232 110.49632454 C105.08763338 110.49617088 107.65214251 110.50225147 110.21661377 110.51461601 C113.7983813 110.52945264 117.37920016 110.51890207 120.9609375 110.50170898 C122.02495789 110.51137695 123.08897827 110.52104492 124.1852417 110.53100586 C129.78713336 110.57318275 129.78713336 110.57318275 134.63134766 108.08973694 C136.50032859 105.2646021 136.50032859 105.2646021 137 102 C135.35923508 98.55439366 134.21487558 97.14325038 131 95 C128.78938385 94.69109532 128.78938385 94.69109532 126.30703735 94.72584534 C125.34251144 94.71587021 124.37798553 94.70589508 123.38423157 94.69561768 C122.32753769 94.694953 121.27084381 94.69428833 120.18212891 94.69360352 C119.06806168 94.68528 117.95399445 94.67695648 116.8061676 94.66838074 C113.11293065 94.64422918 109.41987011 94.63550241 105.7265625 94.62890625 C103.16449936 94.61994417 100.60243678 94.61082241 98.04037476 94.60154724 C92.66524632 94.58504086 87.29018915 94.57732092 81.91503906 94.57446289 C75.70564582 94.57082784 69.49674694 94.54093542 63.28750479 94.49905831 C57.31112601 94.46016688 51.33502113 94.44887003 45.35850143 94.44773674 C42.81713555 94.44352458 40.27576962 94.43105073 37.73448563 94.41021919 C34.18143733 94.38341202 30.62975739 94.38809968 27.07666016 94.40063477 C26.02401474 94.38580048 24.97136932 94.37096619 23.88682556 94.35568237 C17.94407444 94.41548958 14.56480012 94.70852703 11 100 Z M-157 139 C-158.16210219 141.39351495 -158.16210219 141.39351495 -158 144 C-156.24886475 147.71261227 -156.24886475 147.71261227 -153 150 C-151.11190856 150.11153151 -149.21991277 150.15925985 -147.32861328 150.17700195 C-146.14042999 150.18983719 -144.9522467 150.20267242 -143.72805786 150.21589661 C-142.43850189 150.22328354 -141.14894592 150.23067047 -139.8203125 150.23828125 C-137.84114334 150.25038887 -137.84114334 150.25038887 -135.82199097 150.26274109 C-133.02602262 150.27776688 -130.23007968 150.2876058 -127.43408203 150.29516602 C-123.85377018 150.30623454 -120.27407917 150.34063967 -116.69398689 150.38033772 C-113.94016364 150.40648512 -111.18648881 150.41485606 -108.43255234 150.41844749 C-106.47155666 150.4256844 -104.51066238 150.45213039 -102.54983521 150.47883606 C-101.3553476 150.47591049 -100.16085999 150.47298492 -98.93017578 150.4699707 C-97.35370773 150.47877007 -97.35370773 150.47877007 -95.74539185 150.48774719 C-92.27804519 149.87173728 -91.10191461 148.78268374 -89 146 C-88.39097771 141.28765524 -88.39097771 141.28765524 -90.3125 137.125 C-93.63753421 134.90831053 -96.61857185 134.86149718 -100.49365234 134.82299805 C-101.61847015 134.81016281 -102.74328796 134.79732758 -103.90219116 134.78410339 C-105.11782745 134.77671646 -106.33346375 134.76932953 -107.5859375 134.76171875 C-108.83500885 134.753647 -110.0840802 134.74557526 -111.3710022 134.73725891 C-114.01560169 134.72341992 -116.6600766 134.71240256 -119.3046875 134.70483398 C-122.68647104 134.69376681 -126.06759708 134.65935686 -129.44914818 134.61966228 C-132.68217925 134.58718416 -135.91526816 134.58271688 -139.1484375 134.57421875 C-140.96581924 134.54795662 -140.96581924 134.54795662 -142.81991577 134.52116394 C-143.9510379 134.52408951 -145.08216003 134.52701508 -146.24755859 134.5300293 C-147.2400058 134.52416306 -148.232453 134.51829681 -149.25497437 134.51225281 C-152.7750012 135.13770533 -154.45063408 136.54321533 -157 139 Z M-76 138 C-77.42041821 140.84083641 -77.31452272 142.85477278 -77 146 C-75.67323285 148.36124219 -75.67323285 148.36124219 -73 150 C-69.63955789 150.61466802 -66.31503727 150.58418216 -62.90625 150.56640625 C-61.43073669 150.57570412 -61.43073669 150.57570412 -59.92541504 150.58518982 C-57.84758493 150.59228747 -55.76969795 150.58911495 -53.69189453 150.57641602 C-50.51098146 150.56254788 -47.33300843 150.59662521 -44.15234375 150.63476562 C-42.13281178 150.6357168 -40.11327612 150.6338581 -38.09375 150.62890625 C-37.14262329 150.64216446 -36.19149658 150.65542267 -35.21154785 150.66908264 C-29.77012201 150.6523576 -29.77012201 150.6523576 -25.40039062 147.62084961 C-23.82537986 144.67319609 -23.32802096 143.27589781 -24 140 C-25.87027485 137.75567018 -27.38886404 136.30556798 -30 135 C-33.00380556 134.87625544 -35.98346439 134.81153951 -38.98828125 134.796875 C-39.88363083 134.79117493 -40.77898041 134.78547485 -41.70146179 134.77960205 C-43.59873267 134.7701461 -45.49602001 134.76361571 -47.39331055 134.75976562 C-50.2904953 134.75007361 -53.18696662 134.71906169 -56.08398438 134.6875 C-57.92707912 134.68096857 -59.77017894 134.67571865 -61.61328125 134.671875 C-62.47802567 134.6595282 -63.34277008 134.6471814 -64.23371887 134.63446045 C-68.97216677 134.65193003 -72.16642745 134.88690982 -76 138 Z M-13 138 C-15.30260759 140.81598187 -15.30260759 140.81598187 -14.875 144 C-13.84170305 147.54273239 -13.13714005 148.18511764 -10 150 C-7.23628775 150.45243011 -7.23628775 150.45243011 -4.1550293 150.38768005 C-2.36323746 150.402537 -2.36323746 150.402537 -0.5352478 150.41769409 C1.42546158 150.41094162 1.42546158 150.41094162 3.42578125 150.40405273 C4.81888375 150.40975612 6.21198157 150.41672026 7.60507202 150.42485046 C11.38604223 150.44279941 15.16678059 150.44161046 18.94778061 150.43590808 C22.10398819 150.43281913 25.26015105 150.4389053 28.41635227 150.44494683 C35.86126484 150.45899574 43.30606266 150.45742737 50.75097656 150.44604492 C58.43324759 150.43455919 66.1151697 150.44864597 73.79739475 150.4754414 C80.39283744 150.49758537 86.9881705 150.50423886 93.58364773 150.49836498 C97.52302341 150.49499154 101.46217533 150.49743609 105.40151978 150.51461601 C109.10510527 150.53006286 112.80817296 150.52615543 116.51173782 150.50731087 C118.51958261 150.50185738 120.52745053 150.51615563 122.5352478 150.53100586 C124.32703964 150.51625465 124.32703964 150.51625465 126.1550293 150.50120544 C127.19330368 150.50099616 128.23157806 150.50078688 129.30131531 150.50057125 C132.69569893 149.87095681 133.85652716 148.64537092 136 146 C137.07642709 144.11149645 137.07642709 144.11149645 137 142 C135.29608919 138.2334603 133.82914796 136.48214737 130 135 C127.30105608 134.69748123 127.30105608 134.69748123 124.31361389 134.73930359 C123.15418777 134.73221878 121.99476166 134.72513397 120.80020142 134.71783447 C119.53203583 134.72031189 118.26387024 134.72278931 116.95727539 134.7253418 C115.60520649 134.72099352 114.25314005 134.71580998 112.90107727 134.70985413 C109.23164618 134.69646532 105.56231809 134.69588531 101.89286733 134.69841743 C98.82871975 134.69948721 95.764593 134.69460359 92.70044988 134.689812 C85.47126389 134.67871725 78.24212985 134.67827924 71.01293945 134.68432617 C63.55682516 134.69036704 56.10089952 134.67805209 48.64481741 134.6567561 C42.24130236 134.63913943 35.83784734 134.63313884 29.43430895 134.63639385 C25.61062932 134.63820673 21.78708427 134.63557008 17.96342659 134.62167931 C14.36743956 134.60910439 10.7717466 134.61104162 7.17576408 134.62409019 C5.22894398 134.62758358 3.28211491 134.61627553 1.33532715 134.60452271 C0.17308121 134.61153702 -0.98916473 134.61855133 -2.18663025 134.6257782 C-3.19448546 134.62561046 -4.20234068 134.62544271 -5.24073696 134.62526989 C-8.50692446 135.06884442 -10.35666385 136.05505841 -13 138 Z M-155 167 C-157.1914316 169.70276564 -158.04165996 171.12514088 -157.875 174.625 C-156.92271642 177.20976971 -156.20356902 178.36772665 -154 180 C-149.89294352 181.25103404 -145.81946204 181.15517813 -141.56298828 181.16113281 C-140.28909744 181.16858017 -140.28909744 181.16858017 -138.98947144 181.17617798 C-136.18307685 181.19076989 -133.37673877 181.19759623 -130.5703125 181.203125 C-128.61742146 181.20887837 -126.66453042 181.21463608 -124.7116394 181.22039795 C-120.61781552 181.23089911 -116.52401123 181.23674774 -112.43017578 181.24023438 C-107.18895863 181.24572086 -101.94800104 181.26975597 -96.70686531 181.29820633 C-92.67307786 181.31684414 -88.63935284 181.3220389 -84.60552597 181.32357025 C-82.67345636 181.32659412 -80.74138778 181.33461366 -78.8093605 181.34775543 C-76.10464035 181.36484169 -73.40055326 181.36292954 -70.69580078 181.35644531 C-69.90079163 181.3656601 -69.10578247 181.37487488 -68.28668213 181.3843689 C-63.47335864 181.34828642 -60.17503691 180.65636806 -56 178 C-54.57958179 175.15916359 -54.68547728 173.14522722 -55 170 C-57.38517966 166.84815545 -59.19335039 165.73248674 -63 165 C-65.79534411 164.90033323 -68.56573104 164.85313535 -71.36108398 164.85473633 C-72.62275391 164.84969841 -72.62275391 164.84969841 -73.90991211 164.84455872 C-76.68865437 164.83506453 -79.46733628 164.83310645 -82.24609375 164.83203125 C-84.17896042 164.8288179 -86.11182684 164.82545377 -88.04469299 164.82194519 C-92.09563765 164.81595797 -96.14656099 164.8141049 -100.19750977 164.81469727 C-105.38720204 164.81479893 -110.57675764 164.80114018 -115.7664175 164.78392506 C-119.75812915 164.77280536 -123.74980773 164.77077804 -127.74153328 164.77130699 C-129.65488214 164.77012708 -131.56823186 164.76570471 -133.48156548 164.75797462 C-136.15764823 164.74817424 -138.83343392 164.75105285 -141.50952148 164.75708008 C-142.29877518 164.75146057 -143.08802887 164.74584106 -143.90119934 164.74005127 C-148.02729214 164.76365825 -151.33948872 165.01872548 -155 167 Z M-35.875 168.75 C-37.4472882 171.8945764 -36.98936706 173.67855345 -36 177 C-34.08268479 179.52737004 -33.08494591 179.9716847 -30 181 C-27.18148114 181.10169507 -24.38760558 181.14683381 -21.56884766 181.14526367 C-20.70837326 181.14862228 -19.84789886 181.1519809 -18.96134949 181.15544128 C-16.1122392 181.16495264 -13.26318768 181.16689452 -10.4140625 181.16796875 C-8.4349261 181.1711813 -6.45578995 181.17454537 -4.47665405 181.17805481 C-0.32557627 181.18404661 3.82548069 181.18589467 7.9765625 181.18530273 C13.29519756 181.18520113 18.61369907 181.19885128 23.93230247 181.21607494 C28.02095147 181.22719482 32.10956818 181.22922194 36.19823074 181.22869301 C38.15902797 181.22987322 40.11982602 181.2342973 42.08060837 181.24202538 C44.8238535 181.25182455 47.56680878 181.24894743 50.31005859 181.24291992 C51.52434792 181.25134918 51.52434792 181.25134918 52.76316833 181.25994873 C56.9225312 181.23673013 60.33470959 181.06394551 64 179 C66.32749345 175.50875983 66.50299316 174.10777749 66 170 C63.61482034 166.84815545 61.80664961 165.73248674 58 165 C55.20465589 164.90033323 52.43426896 164.85313535 49.63891602 164.85473633 C48.37724609 164.84969841 48.37724609 164.84969841 47.09008789 164.84455872 C44.31134563 164.83506453 41.53266372 164.83310645 38.75390625 164.83203125 C36.82103958 164.8288179 34.88817316 164.82545377 32.95530701 164.82194519 C28.90436235 164.81595797 24.85343901 164.8141049 20.80249023 164.81469727 C15.61279796 164.81479893 10.42324236 164.80114018 5.2335825 164.78392506 C1.24187085 164.77280536 -2.74980773 164.77077804 -6.74153328 164.77130699 C-8.65488214 164.77012708 -10.56823186 164.76570471 -12.48156548 164.75797462 C-15.15764823 164.74817424 -17.83343392 164.75105285 -20.50952148 164.75708008 C-21.29877518 164.75146057 -22.08802887 164.74584106 -22.90119934 164.74005127 C-28.0698879 164.76962335 -32.01627108 165.14851967 -35.875 168.75 Z M79.125 168.75 C77.5527118 171.8945764 78.01063294 173.67855345 79 177 C80.91731521 179.52737004 81.91505409 179.9716847 85 181 C86.43104603 181.09579296 87.86606242 181.13806943 89.30029297 181.14526367 C90.164841 181.15164352 91.02938904 181.15802338 91.9201355 181.16459656 C93.31705124 181.16626579 93.31705124 181.16626579 94.7421875 181.16796875 C95.70271027 181.17129715 96.66323303 181.17462555 97.65286255 181.17805481 C99.68539959 181.18311847 101.71794494 181.18546331 103.75048828 181.18530273 C106.85593418 181.18748659 109.96102334 181.20564107 113.06640625 181.22460938 C115.04166545 181.22754395 117.01692634 181.22952832 118.9921875 181.23046875 C120.38303055 181.24124702 120.38303055 181.24124702 121.80197144 181.25224304 C128.13652022 181.24349821 128.13652022 181.24349821 134 179 C136.07976712 176.83928533 136.07976712 176.83928533 137 174 C136.73801735 170.79698704 136.73801735 170.79698704 135 168 C129.81654329 164.54249428 125.18756917 164.57486184 119.18359375 164.63671875 C118.24951187 164.63622025 117.31542999 164.63572174 116.3530426 164.63520813 C114.38548649 164.63754095 112.41792696 164.64722257 110.45043945 164.66381836 C107.44390115 164.68744969 104.4382485 164.68436822 101.43164062 164.67773438 C99.51561973 164.68331052 97.59960256 164.69042 95.68359375 164.69921875 C94.78764999 164.69830734 93.89170624 164.69739594 92.96861267 164.69645691 C87.59368416 164.75736635 83.23951925 164.90978204 79.125 168.75 Z " fill="#270F5D" transform="translate(271,151)"/>
<path d="M0 0 C79.2 0 158.4 0 240 0 C240.0825 20.026875 240.165 40.05375 240.25 60.6875 C240.28641602 67.01123779 240.32283203 73.33497559 240.36035156 79.8503418 C240.37841797 87.57189941 240.37841797 87.57189941 240.3817749 91.18659973 C240.3879176 93.71140867 240.4019867 96.23620587 240.42230225 98.76094055 C240.45153664 102.58521922 240.45562557 106.4087808 240.45410156 110.2331543 C240.468494 111.35810397 240.48288643 112.48305365 240.497715 113.6420927 C240.47393491 118.09283838 240.45750135 121.13932442 238.34661865 125.11042786 C233.08465671 129.34752735 227.37527583 129.2897513 220.93556213 129.26069641 C220.03290947 129.26452196 219.13025681 129.26834751 218.20025104 129.27228898 C215.18104857 129.28259295 212.1620372 129.27863176 209.14282227 129.2746582 C206.97598088 129.27900609 204.80914103 129.2841895 202.64230347 129.29014587 C196.76012763 129.30353829 190.87801603 129.3041143 184.99582791 129.30158257 C180.08517277 129.30051311 175.17453064 129.30539558 170.26387829 129.310188 C158.67940831 129.32128386 147.09497076 129.32172002 135.51049805 129.31567383 C123.55896286 129.309632 111.60754535 129.32195025 99.65603024 129.3432439 C89.39430604 129.36085474 79.1326193 129.3668621 68.87088054 129.36360615 C62.74222708 129.36179245 56.61365756 129.36443829 50.48501778 129.37832069 C44.7221872 129.39088605 38.95954022 129.38896704 33.19671249 129.37590981 C31.08235932 129.37354173 28.96799328 129.37628694 26.85365486 129.38453293 C23.96603031 129.39498229 21.07902385 129.38691406 18.19142151 129.3742218 C17.35600454 129.38159609 16.52058758 129.38897037 15.65985495 129.39656812 C10.38083447 129.34779864 6.66215631 128.543273 2 126 C-0.19061605 122.71407593 -0.24827276 121.77778672 -0.24050903 117.96968079 C-0.24326403 116.93277509 -0.24601902 115.89586939 -0.2488575 114.8275423 C-0.24166128 113.68602805 -0.23446507 112.5445138 -0.22705078 111.3684082 C-0.22729185 110.14884776 -0.22753292 108.92928732 -0.2277813 107.6727705 C-0.22678762 105.04370271 -0.22221652 102.41494918 -0.21115112 99.78593445 C-0.19617654 96.01818176 -0.19094349 92.25056724 -0.18920898 88.48278809 C-0.17871231 79.42600618 -0.15079003 70.36925127 -0.125 61.3125 C-0.08375 41.079375 -0.0425 20.84625 0 0 Z M124 11 C122.93152592 13.49747163 122.14765741 15.6997176 121.45043945 18.29272461 C121.24565381 18.99921866 121.04086817 19.70571272 120.8298769 20.43361568 C120.20192879 22.61779355 119.59920975 24.80778596 119 27 C118.63844391 28.28386858 118.27604394 29.5674999 117.91268921 30.8508606 C116.84785031 34.6662289 115.81433888 38.4892462 114.79296875 42.31640625 C114.41901268 43.71167608 114.04501371 45.10693441 113.67097473 46.50218201 C112.89798801 49.38953775 112.1279385 52.2776588 111.35961914 55.16625977 C110.37830889 58.85325587 109.38569585 62.53711151 108.39051342 66.22038364 C107.61852426 69.08508908 106.85439293 71.95184798 106.0924015 74.81922722 C105.72965808 76.17905699 105.36408102 77.53813442 104.99550438 78.89639473 C104.48246851 80.79011872 103.98159952 82.68712602 103.48120117 84.58422852 C103.19427902 85.65737808 102.90735687 86.73052765 102.61174011 87.8361969 C101.72859983 92.40362988 100.96957683 96.45436525 103.625 100.4375 C106.71685231 102.47161336 108.36367425 102.60605429 112 102 C116.54781362 98.66207434 117.37573371 94.39008885 118.7265625 89.1875 C118.97427399 88.27806641 119.22198547 87.36863281 119.47720337 86.43164062 C120.02821041 84.401829 120.5729354 82.37030496 121.11242676 80.33740234 C122.0531468 76.80016045 123.0145541 73.26899029 123.97949219 69.73828125 C125.7675813 63.18226816 127.5328386 56.62040563 129.28857422 50.05566406 C130.20432245 46.6328301 131.12764295 43.21208263 132.05245018 39.79168701 C132.94400499 36.48756443 133.82686958 33.18113355 134.7109375 29.875 C135.04209564 28.65425781 135.37325378 27.43351562 135.71444702 26.17578125 C136.0154129 25.04269531 136.31637878 23.90960938 136.62646484 22.7421875 C136.8926059 21.7507373 137.15874695 20.75928711 137.43295288 19.73779297 C137.99273533 17.03507499 138.23046644 14.74868638 138 12 C136.05994287 9.41325716 134.55074585 8.22594702 131.5625 7 C127.83125472 7 126.63209217 8.41361152 124 11 Z M82.125 20.75 C81.34125 21.38679688 80.5575 22.02359375 79.75 22.6796875 C75.91992295 25.91131501 72.10712091 29.16240262 68.31518555 32.4387207 C63.75242231 36.37886781 59.11092165 40.19943246 54.40234375 43.96484375 C49.2035842 48.25145561 49.2035842 48.25145561 45.875 53.9375 C46.01544301 57.37835371 46.83298811 58.84021616 49.17578125 61.32421875 C52.27812812 64.17412626 55.54158674 66.80869683 58.83203125 69.4375 C62.33826088 72.24691496 65.72717821 75.18626902 69.125 78.125 C70.88410785 79.63070123 72.64538795 81.13381055 74.40771484 82.63574219 C75.8290012 83.85348953 77.23766804 85.0859303 78.64453125 86.3203125 C82.20847863 89.31961404 84.19757227 90.87057617 88.875 91.625 C91.9139946 91.21164808 91.9139946 91.21164808 93.875 89.8125 C95.35405406 87.42957957 95.86591307 85.81582552 96 83 C93.72984572 78.10655633 90.04547374 75.14374217 86 71.75 C85.00492432 70.9005481 85.00492432 70.9005481 83.98974609 70.03393555 C79.05562814 65.83785714 74.04671257 61.73772578 68.9765625 57.70703125 C67 56 67 56 66 54 C66.63164063 53.48953125 67.26328125 52.9790625 67.9140625 52.453125 C73.44487525 47.95834345 78.93459826 43.41625032 84.375 38.8125 C84.95717285 38.32620117 85.5393457 37.83990234 86.13916016 37.33886719 C89.86509991 34.16726149 93.06468412 30.92653263 96 27 C96.33333333 24.33333333 96.33333333 24.33333333 95 22 C92.77512121 19.60336043 92.77512121 19.60336043 90 18 C85.67977409 18 85.26040698 18.1879943 82.125 20.75 Z M146 20 C143.70371609 22.85637603 143.70371609 22.85637603 143.953125 26.296875 C145.35809684 31.26670075 147.79391621 33.12529181 151.75 36.25 C152.41652588 36.80067139 153.08305176 37.35134277 153.76977539 37.91870117 C155.15011954 39.05817551 156.53635068 40.19055397 157.92822266 41.31591797 C160.55311979 43.44961352 163.12816028 45.63840252 165.70214844 47.83300781 C168.12582741 49.89934075 170.56305049 51.94934602 173 54 C171.76661202 57.70016395 170.36179556 58.54703034 167.3125 60.9375 C166.32894531 61.72382813 165.34539062 62.51015625 164.33203125 63.3203125 C163.79787598 63.74731445 163.2637207 64.17431641 162.71337891 64.61425781 C159.60090107 67.13155964 156.54842733 69.71828874 153.5 72.3125 C152.90098877 72.81579834 152.30197754 73.31909668 151.68481445 73.83764648 C147.37070266 77.49412098 147.37070266 77.49412098 144 82 C144.12695187 85.11032079 144.52046826 87.20078043 146.125 89.875 C149.19056216 91.7143373 151.48634167 91.37878247 155 91 C157.56556002 89.51927598 159.60795126 87.59485634 161.75 85.5625 C162.98080485 84.45075255 164.21258577 83.3400848 165.4453125 82.23046875 C166.04762695 81.6792334 166.64994141 81.12799805 167.27050781 80.56005859 C169.65294841 78.41101915 172.12880412 76.39004508 174.625 74.375 C175.92630859 73.30958984 175.92630859 73.30958984 177.25390625 72.22265625 C179.24938536 70.60753873 181.2555971 69.01498332 183.27734375 67.43359375 C184.37254113 66.56007798 185.46759626 65.68638382 186.5625 64.8125 C188.04943359 63.64654297 188.04943359 63.64654297 189.56640625 62.45703125 C192.34688824 59.64977094 193.3877434 57.90123836 194 54 C192.33861184 50.03640254 189.69725883 47.55279183 186.5 44.75 C185.60796875 43.96753906 184.7159375 43.18507813 183.796875 42.37890625 C180.2425698 39.35576118 176.63900451 36.40097663 173 33.48046875 C170.75896534 31.62752993 168.59153092 29.75013311 166.4375 27.80078125 C165.82551758 27.25397705 165.21353516 26.70717285 164.58300781 26.14379883 C163.38939023 25.07339031 162.20580359 23.99165489 161.03417969 22.8972168 C156.3846417 18.75804355 151.74136702 16.17242198 146 20 Z " fill="#270F5D" transform="translate(16,110)"/>
<path d="M0 0 C1.08863751 0.00368717 2.17727503 0.00737434 3.29890156 0.01117325 C4.54832035 0.00567459 5.79773914 0.00017593 7.08501911 -0.00548935 C8.47201634 0.00866725 9.85900971 0.02320649 11.24599934 0.03808975 C12.70455106 0.03921788 14.16310506 0.03858505 15.62165546 0.03631973 C19.58435966 0.03517027 23.54658129 0.05871662 27.50917315 0.08661556 C31.64915103 0.11159085 35.78913951 0.11396815 39.9291811 0.11871719 C47.77028326 0.1311584 55.6111628 0.16399539 63.45216686 0.20411515 C72.37827457 0.24879733 81.30439282 0.27081094 90.2305845 0.29089689 C108.59367785 0.33272711 126.95656387 0.4031013 145.31948566 0.49219131 C145.32883137 1.38937881 145.33817707 2.28656631 145.34780598 3.21094131 C145.39209818 6.57367471 145.45383228 9.93518478 145.5270052 13.2973671 C145.55504603 14.74614348 145.57634378 16.19506804 145.59048176 17.64404678 C145.68259348 29.13229234 145.68259348 29.13229234 150.31948566 39.49219131 C152.20226877 41.37154931 152.20226877 41.37154931 154.31948566 42.42969131 C155.30948566 43.00010147 155.30948566 43.00010147 156.31948566 43.58203506 C160.20953999 45.3523137 163.69359832 45.61993045 167.94772053 45.63263321 C169.09439701 45.63834335 170.24107349 45.6440535 171.42249775 45.64993668 C173.30365032 45.65161346 173.30365032 45.65161346 175.22280598 45.65332413 C176.56015376 45.65795475 177.89750022 45.66297974 179.23484516 45.66836929 C182.86519447 45.68147278 186.49552529 45.68793438 190.12589455 45.69237995 C192.39607268 45.69531433 194.66624579 45.69941985 196.93642139 45.70388412 C204.04524755 45.7175544 211.1540622 45.72722304 218.26290059 45.73108602 C226.45776657 45.73556408 234.65246553 45.75310218 242.84728074 45.78208661 C249.18883867 45.80373438 255.53034972 45.81379197 261.87194419 45.81512713 C265.65604978 45.81617306 269.43999827 45.82203525 273.22406483 45.83994675 C276.78639304 45.85648088 280.34844696 45.85855727 283.91079998 45.84980774 C285.83200679 45.84867585 287.75320471 45.86235238 289.67435932 45.87656021 C297.60041649 45.83844008 303.80070234 45.38541316 310.13198566 40.17969131 C314.35140948 34.99582777 315.6935994 30.78508639 315.83120441 24.12500381 C315.84915562 23.44541611 315.86710682 22.7658284 315.885602 22.06564713 C315.93935384 19.91622313 315.97348502 17.76701655 316.00698566 15.61719131 C316.04019004 14.15101544 316.07468257 12.68486815 316.11050129 11.21875381 C316.19505764 7.64344184 316.26203572 4.06805339 316.31948566 0.49219131 C335.5817369 0.44552131 354.8439767 0.41022705 374.1062727 0.38856697 C383.04959596 0.37824361 391.99288414 0.3641631 400.93618488 0.34131241 C408.72893392 0.3214109 416.52165756 0.30848259 424.31443131 0.30401433 C428.4426625 0.30140143 432.57082102 0.29523816 436.69902897 0.2807312 C440.58133205 0.26719838 444.46353224 0.2629599 448.34585667 0.26597595 C449.77374804 0.26542385 451.2016427 0.26142084 452.62951374 0.25378036 C454.5730922 0.24388689 456.51672536 0.24740071 458.46032429 0.25168228 C460.09466325 0.2489169 460.09466325 0.2489169 461.76201916 0.24609566 C464.31948566 0.49219131 464.31948566 0.49219131 466.31948566 2.49219131 C466.5599947 4.36514664 466.5599947 4.36514664 466.54653645 6.66650772 C466.54638538 7.52724899 466.54623432 8.38799026 466.54607868 9.27481461 C466.53575611 10.20506454 466.52543354 11.13531448 466.51479816 12.09375381 C466.51055332 13.52115387 466.51055332 13.52115387 466.50622272 14.97739029 C466.49500556 18.02411724 466.46989829 21.07055285 466.44448566 24.11719131 C466.43445785 26.17968708 466.42533165 28.24218743 466.41714191 30.30469131 C466.39676105 35.3672973 466.35923414 40.42970754 466.31948566 45.49219131 C465.26334568 45.69823486 464.2072057 45.90427841 463.11906147 46.1165657 C461.54849785 46.42616655 459.97802739 46.73624017 458.40762043 47.04663467 C457.51984441 47.22111854 456.63206839 47.3956024 455.71739006 47.57537365 C450.2005008 48.6734888 444.70851942 49.84695927 439.22546101 51.10354996 C375.70706122 65.53524174 312.19378475 65.77364916 247.44131701 65.47182591 C236.35730609 65.42172105 225.2760097 65.45398414 214.1922884 65.54370499 C139.76935136 66.13265719 66.96385716 64.18679418 -5.68051434 45.49219131 C-5.7546977 39.72643218 -5.80913231 33.96095115 -5.84530926 28.19482803 C-5.86039128 26.23351578 -5.8808598 24.27223723 -5.9068327 22.31103897 C-5.94324164 19.49113014 -5.96024649 16.67166739 -5.97348309 13.85156631 C-5.98896694 12.97538651 -6.0044508 12.0992067 -6.02040386 11.19647598 C-6.02063046 10.37592728 -6.02085705 9.55537857 -6.02109051 8.70996475 C-6.02775234 7.9904866 -6.03441418 7.27100845 -6.04127789 6.52972794 C-5.36350824 2.70179002 -3.87228825 0.71102274 0 0 Z " fill="#27105D" transform="translate(29.680514335632324,392.50780868530273)"/>
<path d="M0 0 C0.92444184 -0.00367669 1.84888368 -0.00735338 2.80133891 -0.01114148 C5.91816294 -0.02220894 9.03495367 -0.02602733 12.15179443 -0.02983093 C14.37878018 -0.03609325 16.60576487 -0.04273984 18.83274841 -0.04974365 C24.8968854 -0.06717453 30.96101448 -0.07771102 37.02517033 -0.08594918 C40.81128388 -0.09109472 44.59739496 -0.09717064 48.38350677 -0.10346031 C58.86461174 -0.12033285 69.34571556 -0.13496785 79.82683182 -0.14220905 C82.54729463 -0.14411897 85.26775743 -0.1460393 87.98822021 -0.147995 C89.00246725 -0.14872061 89.00246725 -0.14872061 90.03720412 -0.14946087 C100.99060495 -0.15776115 111.94389658 -0.18309746 122.89724973 -0.21557567 C134.14096488 -0.2486432 145.38462659 -0.26632474 156.62839675 -0.26985329 C162.94211853 -0.2722074 169.25566775 -0.28121486 175.56934357 -0.30631447 C181.50860707 -0.32954361 187.44758377 -0.33384909 193.38688087 -0.32355309 C195.5677746 -0.32305637 197.7486822 -0.3294167 199.929533 -0.34310913 C202.90543511 -0.36074899 205.88029911 -0.35376052 208.85620117 -0.34057617 C209.72060515 -0.35154542 210.58500912 -0.36251466 211.47560716 -0.37381631 C216.97865261 -0.31489634 219.94549064 0.5685863 224.18206787 4.14717102 C229.40168897 14.58641322 225.18206787 27.47574342 225.18206787 39.14717102 C145.98206787 39.14717102 66.78206787 39.14717102 -14.81793213 39.14717102 C-14.81793213 6.14717102 -14.81793213 6.14717102 -10.81793213 1.14717102 C-7.46644215 -0.52857397 -3.6860427 -0.00077814 0 0 Z M12.18206787 16.14717102 C11.00594592 17.93388174 11.00594592 17.93388174 11.18206787 20.14717102 C13.53633286 22.91839377 13.53633286 22.91839377 16.18206787 25.14717102 C18.71951102 24.60008375 18.71951102 24.60008375 21.18206787 23.14717102 C22.34655668 20.24365978 22.34655668 20.24365978 22.18206787 17.14717102 C21.11861736 15.1668742 21.11861736 15.1668742 19.18206787 14.14717102 C15.13584285 13.77737089 15.13584285 13.77737089 12.18206787 16.14717102 Z M35.43206787 15.33467102 C33.72419557 17.81108586 33.66645954 19.20083773 34.18206787 22.14717102 C35.75902419 24.22573182 35.75902419 24.22573182 38.18206787 25.14717102 C40.57470194 24.47945919 42.40304172 23.92619717 44.18206787 22.14717102 C44.48185469 19.29919624 44.58278076 17.72820471 42.93206787 15.33467102 C40.28120737 13.53587282 38.08292838 13.53587282 35.43206787 15.33467102 Z M57.24456787 15.20967102 C55.93664289 17.22642591 55.93664289 17.22642591 56.18206787 20.20967102 C56.88254988 23.36146673 56.88254988 23.36146673 59.74456787 24.52217102 C60.54894287 24.72842102 61.35331787 24.93467102 62.18206787 25.14717102 C63.83206787 23.49717102 65.48206787 21.84717102 67.18206787 20.14717102 C66.6349806 17.60972787 66.6349806 17.60972787 65.18206787 15.14717102 C62.02009386 14.07075434 60.23543233 13.56951955 57.24456787 15.20967102 Z " fill="#270F5E" transform="translate(30.81793212890625,55.85282897949219)"/>
<path d="M0 0 C23.72204893 -0.07010403 47.44408231 -0.12299505 71.16621399 -0.15543652 C82.18099431 -0.17090051 93.19571023 -0.19198117 104.21044922 -0.22631836 C113.81172034 -0.25623494 123.41294481 -0.2755784 133.01426125 -0.28226548 C138.09733479 -0.2861739 143.18027491 -0.29534961 148.26330566 -0.31719017 C153.05014482 -0.33759093 157.8367959 -0.34382652 162.62367439 -0.33932304 C164.37801194 -0.34014664 166.13235593 -0.34609086 167.88665581 -0.35761642 C170.28819123 -0.37261696 172.68902332 -0.36892643 175.09057617 -0.36076355 C175.77931698 -0.36950207 176.46805779 -0.3782406 177.17766953 -0.38724393 C185.19134819 -0.31398464 191.39569319 2.39569319 197 8 C199.77483424 12.68851303 201.12589961 16.79074229 201.12304783 22.20912552 C201.12503888 23.04613786 201.12702993 23.8831502 201.12908131 24.74552655 C201.12616847 25.65992088 201.12325563 26.57431521 201.12025452 27.51641846 C201.12153615 28.9793732 201.12153615 28.9793732 201.12284368 30.47188258 C201.12449424 33.74852619 201.11898399 37.0251189 201.11352539 40.30175781 C201.1132434 42.64714558 201.11340148 44.99253343 201.1139679 47.33792114 C201.11425541 53.7135217 201.10836602 60.08910354 201.10139394 66.46469975 C201.09578487 72.4500418 201.09477134 78.43538387 201.09374207 84.42072806 C201.0915534 96.27593162 201.08489833 108.1311283 201.07543945 119.98632812 C201.06626055 131.50260382 201.05918205 143.01887764 201.05493164 154.53515625 C201.05466892 155.2450103 201.05440619 155.95486436 201.05413551 156.68622914 C201.05283047 160.24735555 201.05156676 163.80848197 201.05032361 167.3696084 C201.03995676 196.91307683 201.02206827 226.45653798 201 256 C194.73 256 188.46 256 182 256 C184 252 184 252 185.05245543 250.16600889 C187.88201203 245.07975482 188.57459875 241.0463923 188.50793457 235.27796936 C188.51417453 234.43627227 188.5204145 233.59457518 188.52684355 232.72737211 C188.54271173 229.92611162 188.53019367 227.12572878 188.51757812 224.32446289 C188.52300203 222.30834956 188.53012619 220.29224019 188.53881836 218.27613831 C188.55702376 212.81327283 188.54999525 207.35071019 188.53730202 201.88783956 C188.5271586 196.16386058 188.53657156 190.43990714 188.54284668 184.71592712 C188.55011975 175.10329546 188.54054487 165.49078681 188.52148438 155.87817383 C188.49972256 144.7752299 188.50676348 133.67257987 188.52879 122.56964308 C188.54696103 113.02714403 188.54949378 103.4847333 188.53903532 93.94222254 C188.53280899 88.24723556 188.53194103 82.55238656 188.54518127 76.85740852 C188.55676363 71.50157274 188.54867021 66.14611458 188.52560425 60.79031944 C188.52032967 58.82839204 188.52180943 56.86643268 188.53065491 54.90451813 C188.54164377 52.21892581 188.52780695 49.53453104 188.50793457 46.84901428 C188.51685746 46.07915146 188.52578034 45.30928865 188.53497362 44.51609665 C188.41285528 35.9631759 184.7623548 28.95090489 178.96875 22.7890625 C168.25477923 13.05295414 153.98462873 13.7003308 140.31738281 13.68115234 C138.77868129 13.67183258 137.23998473 13.66166094 135.70129395 13.65071106 C131.56165115 13.62362753 127.42204196 13.6083266 123.28233433 13.59528303 C118.94215138 13.57955677 114.60203612 13.5527973 110.26190186 13.5272522 C102.05998912 13.48063138 93.85806342 13.44380694 85.65608668 13.41057932 C76.31132504 13.37223932 66.96663166 13.32286062 57.62192774 13.27259517 C38.4146678 13.16952391 19.20736659 13.08057505 0 13 C0 8.71 0 4.42 0 0 Z " fill="#280F5E" transform="translate(271,122)"/>
<path d="M0 0 C46.53 0 93.06 0 141 0 C141 9.57 141 19.14 141 29 C137.62057194 31.25295204 136.49073487 31.25095037 132.53430176 31.25396729 C131.39860245 31.25960693 130.26290314 31.26524658 129.0927887 31.27105713 C127.84593796 31.26700867 126.59908722 31.26296021 125.31445312 31.25878906 C124.0021019 31.2622937 122.68975067 31.26579834 121.33763123 31.26940918 C117.73644515 31.27853579 114.13537352 31.27498784 110.53418541 31.26865101 C106.76794498 31.26359242 103.00171444 31.26828207 99.23547363 31.27142334 C92.91038247 31.2750634 86.58533799 31.27026286 80.26025391 31.26074219 C72.94446144 31.24985754 65.62878043 31.25338309 58.31299067 31.264395 C52.03521854 31.27346675 45.75747999 31.2747537 39.47970343 31.26951766 C35.72876502 31.26639734 31.97787903 31.2659903 28.22694397 31.27259064 C24.04641095 31.27943288 19.86607055 31.26995317 15.68554688 31.25878906 C13.81527077 31.26486176 13.81527077 31.26486176 11.9072113 31.27105713 C10.77151199 31.26541748 9.63581268 31.25977783 8.46569824 31.25396729 C6.98238636 31.25283621 6.98238636 31.25283621 5.46910858 31.25168228 C3 31 3 31 0 29 C0 19.43 0 9.86 0 0 Z " fill="#27105E" transform="translate(190,393)"/>
<path d="M0 0 C3.96 0 7.92 0 12 0 C12.00142502 1.39790771 12.00285004 2.79581543 12.00431824 4.23608398 C12.02099821 17.41941392 12.06350676 30.60244945 12.13209057 43.78561401 C12.1666902 50.56300427 12.19208944 57.34019219 12.19555664 64.11767578 C12.19892977 70.66011127 12.22830344 77.2021328 12.27343178 83.74441528 C12.28640674 86.2385868 12.29071451 88.73281917 12.28615379 91.22702026 C12.28124822 94.72481991 12.307342 98.22113319 12.34057617 101.71875 C12.33195053 102.74662125 12.32332489 103.77449249 12.31443787 104.83351135 C12.40883924 110.77268252 13.28001443 114.53401826 16.83177662 119.3536377 C18 121 18 121 19 124 C12.73 124 6.46 124 0 124 C0 83.08 0 42.16 0 0 Z " fill="#270F5D" transform="translate(49,254)"/>
</svg>
